<svg width="16" height="16" viewBox="0 0 16 16" fill="none" xmlns="http://www.w3.org/2000/svg">
<path d="M8 8.22222C7.00544 8.22222 6.05161 7.84177 5.34835 7.16455C4.64509 6.48734 4.25 5.56884 4.25 4.61111C4.25 3.65338 4.64509 2.73488 5.34835 2.05767C6.05161 1.38046 7.00544 1 8 1C8.99456 1 9.94839 1.38046 10.6517 2.05767C11.3549 2.73488 11.75 3.65338 11.75 4.61111C11.75 5.56884 11.3549 6.48734 10.6517 7.16455C9.94839 7.84177 8.99456 8.22222 8 8.22222ZM8 6.77778C8.29547 6.77778 8.58806 6.72174 8.86104 6.61285C9.13402 6.50397 9.38206 6.34437 9.59099 6.14318C9.79992 5.94198 9.96566 5.70313 10.0787 5.44026C10.1918 5.17739 10.25 4.89564 10.25 4.61111C10.25 4.32658 10.1918 4.04484 10.0787 3.78196C9.96566 3.51909 9.79992 3.28024 9.59099 3.07905C9.38206 2.87785 9.13402 2.71826 8.86104 2.60937C8.58806 2.50049 8.29547 2.44444 8 2.44444C7.40326 2.44444 6.83097 2.67272 6.40901 3.07905C5.98705 3.48538 5.75 4.03648 5.75 4.61111C5.75 5.18575 5.98705 5.73685 6.40901 6.14318C6.83097 6.5495 7.40326 6.77778 8 6.77778ZM6.5 8.94444H9.5C10.6935 8.94444 11.8381 9.40099 12.682 10.2136C13.5259 11.0263 14 12.1285 14 13.2778V14H2V13.2778C2 12.1285 2.47411 11.0263 3.31802 10.2136C4.16193 9.40099 5.30653 8.94444 6.5 8.94444ZM9.5 10.3889H6.5C5.83485 10.389 5.18857 10.6018 4.66267 10.994C4.13676 11.3862 3.76104 11.9354 3.5945 12.5556H12.4055C12.239 11.9354 11.8632 11.3862 11.3373 10.994C10.8114 10.6018 10.1652 10.389 9.5 10.3889Z" fill="#566D8F"/>
</svg>
