<?xml version="1.0" encoding="UTF-8"?>
<svg width="24px" height="24px" viewBox="0 0 24 24" version="1.1" xmlns="http://www.w3.org/2000/svg" xmlns:xlink="http://www.w3.org/1999/xlink">
    <title>msg_normal</title>
    <g id="页面-1" stroke="none" stroke-width="1" fill="none" fill-rule="evenodd">
        <g id="msg_normal" fill-rule="nonzero">
            <rect id="Rectangle" fill="#5D6F91" opacity="0" x="0" y="0" width="24" height="24" rx="2"></rect>
            <path d="M16.7999994,15.9 C17.4246867,15.6638708 17.5513261,15.6877912 18,15.9 C17.2329184,15.4964275 16.9434568,15.0316869 16.7999994,14.8 L16.7999994,11.5 C16.9434568,9.36424355 15.2808619,7.55141348 13.1999996,7.1 L13.1999996,7.1 C13.0592442,6.44594595 12.5852509,6 12,6 C11.4165498,6 10.9425565,6.44765455 10.7999997,7.1 L10.7999997,7.1 C8.72093884,7.55141348 7.0583439,9.36253495 7.19999993,11.5 L7.19999993,14.8 C7.0583439,15.0316869 6.76707318,15.4964275 6,15.9 C6.45228372,15.6877912 6.57711402,15.6621622 7.19999993,15.9 C6.31478947,15.6689966 6,15.9645853 6,15.9 C6,16.7027027 6.31478947,17 7.19999993,17 L16.7999994,17 C17.6852021,17 18,16.7027027 18,15.9 C18.0018007,15.9680025 17.6870112,15.6689966 16.7999994,15.9 L16.7999994,15.9 Z M11.4545451,18 C12.9036881,18 13.6363632,17.5522541 13.6363632,17 L10.3636361,17 C10.3636361,17.5522541 11.0946346,18 12.5454542,18 L11.4545451,18 Z" id="Shape" fill="#D3DBEA"></path>
        </g>
    </g>
</svg>