<?xml version="1.0" encoding="UTF-8"?>
<svg width="16px" height="16px" viewBox="0 0 16 16" version="1.1" xmlns="http://www.w3.org/2000/svg" xmlns:xlink="http://www.w3.org/1999/xlink">
    <!-- Generator: Sketch 52.3 (67297) - http://www.bohemiancoding.com/sketch -->
    <title>对勾小 copy</title>
    <desc>Created with Sketch.</desc>
    <g id="-" stroke="none" stroke-width="1" fill="none" fill-rule="evenodd">
        <g id="篮子管理" transform="translate(-1088.000000, -378.000000)">
            <g id="Group-21" transform="translate(889.000000, 374.000000)">
                <g id="Group-15" transform="translate(59.000000, 0.000000)">
                    <g id="对勾小-copy_export" transform="translate(140.000000, 4.000000)">
                        <g id="对勾小-copy">
                            <g transform="translate(1.000000, 1.000000)">
                                <rect id="Rectangle" fill="#000000" opacity="0" x="0" y="0" width="14" height="14"></rect>
                                <path d="M8.06066017,7 L10.1819805,4.87867966 C10.4748737,4.58578644 10.4748737,4.1109127 10.1819805,3.81801948 C9.8890873,3.52512627 9.41421356,3.52512627 9.12132034,3.81801948 L7,5.93933983 L4.87867966,3.81801948 C4.58578644,3.52512627 4.1109127,3.52512627 3.81801948,3.81801948 C3.52512627,4.1109127 3.52512627,4.58578644 3.81801948,4.87867966 L5.93933983,7 L3.81801948,9.12132034 C3.52512627,9.41421356 3.52512627,9.8890873 3.81801948,10.1819805 C4.1109127,10.4748737 4.58578644,10.4748737 4.87867966,10.1819805 L7,8.06066017 L9.12132034,10.1819805 C9.41421356,10.4748737 9.8890873,10.4748737 10.1819805,10.1819805 C10.4748737,9.8890873 10.4748737,9.41421356 10.1819805,9.12132034 L8.06066017,7 Z M7,14 C3.13425,14 0,10.86575 0,7 C0,3.13425 3.13425,0 7,0 C10.86575,0 14,3.13425 14,7 C14,10.86575 10.86575,14 7,14 Z" id="Combined-Shape" fill="#E94242" fill-rule="nonzero"></path>
                            </g>
                        </g>
                    </g>
                </g>
            </g>
        </g>
    </g>
</svg>