<?xml version="1.0" encoding="UTF-8"?>
<svg width="16px" height="16px" viewBox="0 0 16 16" version="1.1" xmlns="http://www.w3.org/2000/svg" xmlns:xlink="http://www.w3.org/1999/xlink">
    <title>编组 13</title>
    <g id="最终稿" stroke="none" stroke-width="1" fill="none" fill-rule="evenodd">
        <g id="编组-13">
            <g id="编组" transform="translate(8.000000, 8.000000) scale(-1, 1) translate(-8.000000, -8.000000) translate(2.000000, 2.000000)" fill="#1D71F0" fill-rule="nonzero" stroke="#1D71F0" stroke-width="0.5">
                <path d="M1.1193586,6.03618925 L6.80706908,0.731748805 C6.92374498,0.622938087 6.96888425,0.464739299 6.92548337,0.316744393 C6.88208248,0.168749486 6.75673508,0.0534424088 6.5966583,0.0142582203 C6.43658153,-0.0249259682 6.26609485,0.0179657427 6.14941896,0.126776461 L0.134548906,5.73571518 C-0.0457506334,5.90393176 -0.0447132633,6.17566821 0.136866106,6.34269963 L6.15173616,11.8753126 C6.33334123,12.0423711 6.62677619,12.0414402 6.80714149,11.8732334 C6.9875068,11.7050266 6.98650177,11.4332404 6.80489671,11.2661819 L1.1193586,6.03618925 Z" id="路径1"></path>
                <path d="M6.17708053,6.03618925 L11.8653703,0.731748805 C11.9820462,0.622938089 12.0271855,0.464739296 11.9837846,0.316744384 C11.9403837,0.168749472 11.8150363,0.05344239 11.6549595,0.0142582027 C11.4948828,-0.0249259846 11.3243961,0.0179657333 11.2077202,0.126776461 L5.19285013,5.73571518 C5.01255059,5.90393176 5.01358796,6.17566821 5.19516733,6.34269963 L11.2093133,11.8753126 C11.3909183,12.0423711 11.6843533,12.0414402 11.8647186,11.8732334 C12.0450839,11.7050266 12.0440789,11.4332404 11.8624738,11.2661819 L6.17708053,6.03618925 Z" id="路径2"></path>
            </g>
        </g>
    </g>
</svg>