<?xml version="1.0" encoding="UTF-8"?>
<svg width="16px" height="16px" viewBox="0 0 16 16" version="1.1" xmlns="http://www.w3.org/2000/svg" xmlns:xlink="http://www.w3.org/1999/xlink">
    <!-- Generator: Sketch 52.3 (67297) - http://www.bohemiancoding.com/sketch -->
    <title>眼睛-不可见-默认</title>
    <desc>Created with Sketch.</desc>
    <g stroke="none" stroke-width="1" fill="none" fill-rule="evenodd">
        <g id="眼睛-实">
            <rect fill="#000000" opacity="0" x="0" y="0" width="16" height="16"></rect>
            <path d="M6.80808442,4.10097764 C7.19863749,4.03322023 7.59442313,4 8,4 C11.4666667,4 14.075,6.5 15.9625,8.675 L16,8.72083333 L15.7708333,8.95 C15.1656065,9.56383192 14.4576997,10.2783693 13.6552689,10.9481621 L11.3330887,8.6259819 C11.3113671,6.82068048 9.84598618,5.35529956 8.04068477,5.33357799 L6.80808442,4.10097764 Z M4.70056013,4.82188047 L5.93262278,6.05394312 C5.16195242,6.66512088 4.66666667,7.60932911 4.66666667,8.66666667 C4.66666667,10.5041667 6.1625,12 8,12 C9.05733756,12 10.0015458,11.5047143 10.6127235,10.7340439 L12.0121717,12.1334921 C10.6719016,12.9402489 9.35411859,13.3333333 8,13.3333333 C4.55833333,13.3333333 2.575,11.3041667 0.279166667,8.95416667 L0,8.66666667 L0.0416666667,8.625 C1.65,6.96666667 2.82083333,5.95833333 3.9625,5.24166667 C4.21051205,5.08675453 4.45614813,4.94693672 4.70056013,4.82188047 Z M7.87209306,7.9934134 C8.02003929,8.35896957 8.31249148,8.65102512 8.67745918,8.79877953 L9.66181321,9.78313355 C9.30262734,10.3235096 8.68893159,10.6791667 7.99583333,10.6791667 C6.89583333,10.6791667 6,9.78333333 6,8.675 C6,7.9798446 6.35077251,7.36664539 6.88474188,7.00606223 L7.87209306,7.9934134 Z" id="Combined-Shape" fill="#CCCCCC" fill-rule="nonzero"></path>
        </g>
        <rect fill="#CCCCCC" transform="translate(8.656854, 8.656854) rotate(-45.000000) translate(-8.656854, -8.656854) " x="7.65685425" y="1.65685425" width="2" height="14"></rect>
    </g>
</svg>