<?xml version="1.0" encoding="UTF-8"?>
<svg width="16px" height="16px" viewBox="0 0 16 16" version="1.1" xmlns="http://www.w3.org/2000/svg" xmlns:xlink="http://www.w3.org/1999/xlink">
    <!-- Generator: Sketch 52.3 (67297) - http://www.bohemiancoding.com/sketch -->
    <title>眼睛-实-默认</title>
    <desc>Created with Sketch.</desc>
    <g id="-----" stroke="none" stroke-width="1" fill="none" fill-rule="evenodd">
        <g id="篮子管理" transform="translate(-227.000000, -61.000000)">
            <g id="眼睛-实-默认_export" transform="translate(227.000000, 61.000000)">
                <g id="眼睛-实">
                    <g>
                        <rect id="Rectangle" fill="#000000" opacity="0" x="0" y="0" width="16" height="16"></rect>
                        <path d="M15.9625,8.675 C14.075,6.5 11.4666667,4 8,4 C6.6,4 5.31666667,4.39583333 3.9625,5.24166667 C2.82083333,5.95833333 1.65,6.96666667 0.0416666667,8.625 L0,8.66666667 L0.279166667,8.95416667 C2.575,11.3041667 4.55833333,13.3333333 8,13.3333333 C9.52083333,13.3333333 10.9958333,12.8375 12.5083333,11.8166667 C13.7958333,10.9458333 14.8916667,9.84166667 15.7708333,8.95 L16,8.72083333 L15.9625,8.675 Z M8,12 C6.1625,12 4.66666667,10.5041667 4.66666667,8.66666667 C4.66666667,6.82916667 6.1625,5.33333333 8,5.33333333 C9.8375,5.33333333 11.3333333,6.82916667 11.3333333,8.66666667 C11.3333333,10.5041667 9.8375,12 8,12 Z M7.76666667,7.45 C7.76666667,7.1625 7.85,6.89166667 7.99583333,6.66666667 C6.89166667,6.66666667 6,7.56666667 6,8.675 C6,9.78333333 6.89583333,10.6791667 7.99583333,10.6791667 C9.09583333,10.6791667 9.99583333,9.78333333 9.99583333,8.675 C9.77083333,8.82083333 9.5,8.90416667 9.2125,8.90416667 C8.41666667,8.9 7.76666667,8.25 7.76666667,7.45 Z" id="Shape" fill="#999999" fill-rule="nonzero"></path>
                    </g>
                </g>
            </g>
        </g>
    </g>
</svg>