<?xml version="1.0" encoding="UTF-8"?>
<svg width="24px" height="24px" viewBox="0 0 24 24" version="1.1" xmlns="http://www.w3.org/2000/svg" xmlns:xlink="http://www.w3.org/1999/xlink">
    <title>顶部刷新默认态</title>
    <g id="白版" stroke="none" stroke-width="1" fill="none" fill-rule="evenodd">
        <g id="顶部栏" transform="translate(-294.000000, -567.000000)">
            <g id="顶部刷新默认态" transform="translate(294.000000, 567.000000)">
                <rect x="0" y="0" width="24" height="24" rx="2"></rect>
                <g id="编组-41" transform="translate(4.000000, 4.000000)">
                    <rect fill="#EBEEF5" opacity="0" x="0" y="0" width="16" height="16"></rect>
                    <g id="编组" transform="translate(2.000000, 2.000000)" fill="#D3DBEA" fill-rule="nonzero">
                        <path d="M8.90306817,2.84601056 C7.15797166,1.24586177 4.44562614,1.36294583 2.84511095,3.10764284 C1.58147023,4.48518738 1.35592338,6.52331728 2.28847288,8.14370282 C3.47403968,10.1919511 6.09385316,10.8944554 8.14401625,9.71060552 C9.10981946,9.1526494 9.82115954,8.24055013 10.1247803,7.16655686 C10.2534577,6.71122996 10.7276844,6.44670672 11.1831156,6.57535464 C11.6385467,6.70400255 11.9031305,7.17812071 11.7744531,7.63344761 C10.8722657,10.8207359 7.5570161,12.673844 4.36755223,11.7718631 C1.17953417,10.8698822 -0.673998326,7.55539157 0.228189098,4.36665784 C1.13037652,1.17792411 4.44562614,-0.673738589 7.63509001,0.228242303 C8.56330207,0.491320063 9.41488604,0.972665635 10.1161054,1.63469648 L11.2684185,0.482647169 C11.4361329,0.314971234 11.7064999,0.314971234 11.8742143,0.481201687 C11.9551798,0.56214869 12,0.670559855 12,0.784752949 L12,4.46350514 C12,4.70056422 11.8077068,4.89136787 11.5720393,4.89136787 L7.89099895,4.89136787 C7.65388558,4.89136787 7.46303824,4.69911874 7.46303824,4.46205966 C7.46303824,4.34931205 7.50785845,4.24090089 7.58737818,4.15995388 L8.90306817,2.84601056 Z" id="路径"></path>
                    </g>
                </g>
            </g>
        </g>
    </g>
</svg>