<?xml version="1.0" encoding="UTF-8"?>
<svg width="16px" height="16px" viewBox="0 0 16 16" version="1.1" xmlns="http://www.w3.org/2000/svg" xmlns:xlink="http://www.w3.org/1999/xlink">
    <title>编组 42</title>
    <g id="页面-1" stroke="none" stroke-width="1" fill="none" fill-rule="evenodd">
        <g id="1.体验案例" transform="translate(-8.000000, -79.000000)">
            <g id="编组-27" transform="translate(0.000000, 36.000000)">
                <g id="编组-29" transform="translate(8.000000, 42.000000)">
                    <g id="编组-42" transform="translate(0.000000, 1.000000)">
                        <rect id="矩形" fill="#FFFFFF" opacity="0" x="0" y="0" width="16" height="16"></rect>
                        <g id="编组" transform="translate(3.000000, 1.000000)" fill-rule="nonzero">
                            <path d="M10,4.54468684 C10,2.04644616 7.76205288,0 5,0 C2.23794712,0 0,2.04644616 0,4.54468684 C0,5.53413089 0.580093313,6.81069669 1.51166407,7.75228712 C2.43545879,8.68543279 3.12130638,10.2561576 3.12130638,11.5087966 L3.12130638,12 L6.87869362,12 L6.87869362,11.513019 C6.87869362,10.26038 7.56454121,8.69247009 8.4836703,7.7565095 C9.41835148,6.80506685 10,5.41449683 10,4.54468684 Z" fill="#FFC600"></path>
                            <path d="M6.93623639,10.8663759 L3.92068429,7.14710547 L6.3125972,2.69785884 L9.41057543,6.39492466 C9.1399689,6.9000793 8.79937792,7.33029342 8.41679627,7.71609833 C7.69517885,8.51268834 7.36547434,9.20796987 7.05287714,10.1780333 L6.93623639,10.8663759 Z" fill="#F5AF0A"></path>
                            <path d="M4.80559876,5.14452815 L3.51944012,5.14452815 C3.32348367,5.14452815 3.18662519,4.96827914 3.25816485,4.80452022 L4.17884914,2.68120539 C4.22083981,2.58544806 4.32503888,2.52160983 4.44012442,2.52160983 L6.07309487,2.52160983 C6.28460342,2.52160983 6.41990669,2.72283902 6.32037325,2.88937351 L5.05287714,5.01268834 C5.00311042,5.09318002 4.90824261,5.14452815 4.80559876,5.14452815 Z" fill="#FFFCF3"></path>
                            <path d="M4.28771384,7.08743061 L6.77604977,4.71431404 C6.96267496,4.53667724 6.82115086,4.24662966 6.54898911,4.24662966 L4.91601866,4.24662966 C4.7807154,4.24662966 4.66096423,4.32434576 4.61897356,4.43953212 L3.76360809,6.81264869 C3.66096423,7.09575734 4.06065319,7.30531324 4.28771384,7.08743061 Z" fill="#FFFCF3"></path>
                            <path d="M6.26905132,14 L3.73094868,14 C3.64230171,14 3.56143079,13.9486519 3.51321928,13.8639968 L3.16796267,13.2505948 L6.83203733,13.2505948 L6.48678072,13.8639968 C6.43856921,13.9486519 6.35769829,14 6.26905132,14 L6.26905132,14 Z" fill="#72819D"></path>
                            <path d="M6.84676633,13 L3.15160871,13 C2.79249269,13 2.5,12.7797375 2.5,12.5065628 L2.5,10.4934372 C2.5,10.221493 2.79086773,10 3.15160871,10 L6.84839129,10 C7.20750731,10 7.5,10.2202625 7.5,10.4934372 L7.5,12.5077933 C7.49837504,12.7797375 7.20750731,13 6.84676633,13 L6.84676633,13 Z" fill="#98B4E8"></path>
                            <path d="M5.45424837,11.4 L2.5,11.4 L2.5,10.75 L5.45424837,10.75 C5.61601307,10.75 5.74836601,10.89625 5.74836601,11.075 C5.74836601,11.2555556 5.61601307,11.4 5.45424837,11.4 Z M2.5,11.75 L7.5,11.75 L7.5,12.4 L2.5,12.4 L2.5,11.75 Z" id="形状结合" fill="#D2DCEE"></path>
                        </g>
                    </g>
                </g>
            </g>
        </g>
    </g>
</svg>