<?xml version="1.0" encoding="UTF-8"?>
<svg width="16px" height="16px" viewBox="0 0 16 16" version="1.1" xmlns="http://www.w3.org/2000/svg" xmlns:xlink="http://www.w3.org/1999/xlink">
    <title>所有任务-默认</title>
    <g id="最终稿" stroke="none" stroke-width="1" fill="none" fill-rule="evenodd">
        <g id="所有任务-默认">
            <path d="M10.3628491,1 C11.1373095,1 11.7668069,1.59649438 11.7721023,2.33141573 L11.7721023,2.33141573 L12.1288837,2.33141573 C13.1606702,2.33141573 13.9998345,3.12925843 14,4.10988764 L14,4.10988764 L14,13.2215281 C14,14.2021573 13.1608357,15 12.1290492,15 L12.1290492,15 L3.87095084,15 C2.83932979,15 2,14.2021573 2,13.2215281 L2,13.2215281 L2,4.10988764 C2,3.12925843 2.83916431,2.33141573 3.87095084,2.33141573 L3.87095084,2.33141573 L4.22773219,2.33141573 C4.23286217,1.59649438 4.86252499,1 5.63681997,1 L5.63681997,1 Z M4.22756671,3.22505618 L3.87095084,3.22505618 C3.35762256,3.22505618 2.94010894,3.62208989 2.94010894,4.10988764 L2.94010894,4.10988764 L2.94010894,13.2213708 C2.94010894,13.7091685 3.35762256,14.1062022 3.87095084,14.1062022 L3.87095084,14.1062022 L12.1290492,14.1062022 C12.6423774,14.1062022 13.0598911,13.7091685 13.0598911,13.2213708 L13.0597256,13.2213708 L13.0597256,4.10988764 C13.0597256,3.62208989 12.642212,3.22505618 12.1288837,3.22505618 L12.1288837,3.22505618 L11.7722678,3.22505618 C11.7671378,3.96013483 11.137475,4.55678652 10.3630145,4.55678652 L10.3630145,4.55678652 L5.63681997,4.55678652 C4.86235951,4.55678652 4.23269668,3.96013483 4.22756671,3.22505618 L4.22756671,3.22505618 Z M11.4144936,11.211191 C11.6741364,11.211191 11.8846308,11.4112809 11.8846308,11.6579326 L11.8846308,11.6579326 L11.8846308,11.7472809 C11.8846308,11.9939326 11.6743019,12.1940225 11.414659,12.1940225 L11.414659,12.1940225 L4.58534096,12.1940225 C4.32586361,12.1940225 4.11536923,11.9940899 4.11536923,11.7472809 L4.11536923,11.7472809 L4.11536923,11.6579326 C4.11536923,11.4112809 4.32569813,11.211191 4.58534096,11.211191 L4.58534096,11.211191 Z M11.4144936,8.64510112 C11.6741364,8.64510112 11.8846308,8.84519101 11.8846308,9.0918427 L11.8846308,9.0918427 L11.8846308,9.18119101 C11.8846308,9.4278427 11.6743019,9.62793258 11.414659,9.62793258 L11.414659,9.62793258 L4.58534096,9.62793258 C4.32586361,9.62793258 4.11536923,9.428 4.11536923,9.18119101 L4.11536923,9.18119101 L4.11536923,9.0918427 C4.11536923,8.84519101 4.32569813,8.64510112 4.58534096,8.64510112 L4.58534096,8.64510112 Z M11.4144936,6.07885393 C11.6741364,6.07885393 11.8846308,6.27894382 11.8846308,6.52559551 L11.8846308,6.52559551 L11.8846308,6.61494382 C11.8846308,6.86159551 11.6743019,7.06168539 11.414659,7.06168539 L11.414659,7.06168539 L4.58534096,7.06168539 C4.32586361,7.06168539 4.11536923,6.86175281 4.11536923,6.61494382 L4.11536923,6.61494382 L4.11536923,6.52559551 C4.11536923,6.27894382 4.32569813,6.07885393 4.58534096,6.07885393 L4.58534096,6.07885393 Z M10.3630145,1.89364045 L5.63665449,1.89364045 C5.3775081,1.89364045 5.16668276,2.09404494 5.16668276,2.34038202 L5.16684824,2.34038202 L5.16684824,3.21624719 C5.16684824,3.46258427 5.37767358,3.66298876 5.63681997,3.66298876 L5.63681997,3.66298876 L10.3630145,3.66298876 C10.6221609,3.66298876 10.8329863,3.46258427 10.8329863,3.21624719 L10.8329863,3.21624719 L10.8329863,2.34038202 C10.8329863,2.09404494 10.6221609,1.89364045 10.3630145,1.89364045 L10.3630145,1.89364045 Z" id="形状结合" fill="#566D8F" fill-rule="nonzero"></path>
        </g>
    </g>
</svg>