<?xml version="1.0" standalone="no"?><!DOCTYPE svg PUBLIC "-//W3C//DTD SVG 1.1//EN" "http://www.w3.org/Graphics/SVG/1.1/DTD/svg11.dtd"><svg t="1706669907055" class="icon" viewBox="0 0 1024 1024" version="1.1" xmlns="http://www.w3.org/2000/svg" p-id="1765" xmlns:xlink="http://www.w3.org/1999/xlink" width="200" height="200"><path d="M160 512c0-35.35 28.65-64 64-64s64 28.65 64 64-28.65 64-64 64-64-28.65-64-64z m288 0c0-35.35 28.65-64 64-64s64 28.65 64 64-28.65 64-64 64-64-28.65-64-64z m352-64c-35.35 0-64 28.65-64 64s28.65 64 64 64 64-28.65 64-64-28.65-64-64-64z" p-id="1766"></path></svg>