<?xml version="1.0" encoding="UTF-8"?>
<svg width="178px" height="178px" viewBox="0 0 178 178" version="1.1" xmlns="http://www.w3.org/2000/svg" xmlns:xlink="http://www.w3.org/1999/xlink">
    <title>WT_MAIRU</title>
    <g id="页面-1" stroke="none" stroke-width="1" fill="none" fill-rule="evenodd">
        <g id="WT_MAIRU" fill="#FC7468" fill-rule="nonzero">
            <path d="M80.4730705,18.480808 C81.0809143,17.6364599 82.2438174,17.5349438 82.9928183,18.2402036 C85.0223988,20.1580387 86.8881096,22.1640966 88.584834,24.2314962 C89.145737,24.2355956 89.7056113,24.2451443 90.2627451,24.2632101 C90.8253507,24.2822841 91.3869275,24.3068072 91.9464468,24.342229 C93.7874686,22.3943304 95.7957017,20.5144553 97.9584729,18.7397402 C98.7550145,18.0835334 99.9129926,18.2540272 100.458401,19.1439451 C101.939853,21.4998597 103.241038,23.9048882 104.3606,26.3362247 L104.3606,26.3362247 L105.976739,26.7851055 L107.581569,27.2758855 C109.857718,25.8423427 112.266509,24.5279695 114.801441,23.3372075 C115.7446,22.8940939 116.813164,23.3582473 117.119456,24.3450792 C117.9629,26.9973331 118.623364,29.6530903 119.105309,32.2827233 L119.105309,32.2827233 L120.560165,33.1180313 L121.992086,33.9908411 C124.547358,33.1601981 127.215424,32.4698788 129.962754,31.9475384 C130.980688,31.756158 131.904802,32.4575931 131.956608,33.4967808 C132.112198,36.2715371 132.093721,39.0085843 131.902215,41.6844302 L131.902215,41.6844302 L133.102102,42.8505614 L134.272901,44.0508047 C136.951994,43.8779022 139.700089,43.8733436 142.496666,44.0378586 C143.530888,44.1020974 144.248998,45.0249618 144.039517,46.0385645 C143.494679,48.774493 142.786745,51.4206011 141.936245,53.9581162 L141.936245,53.9581162 L142.802875,55.3898973 L143.631532,56.8428755 C146.274718,57.3400123 148.927729,58.0250388 151.584072,58.8843542 C152.577124,59.2026475 153.028731,60.2715128 152.582617,61.2009187 C151.361723,63.7209408 150.017092,66.0986225 148.558973,68.3516418 L148.558973,68.3516418 L149.044514,69.9545496 L149.481481,71.5688083 C151.910589,72.7020292 154.313611,74.0153972 156.685079,75.5079031 C157.554549,76.054917 157.73866,77.2030628 157.063808,77.9944657 C155.267835,80.1356164 153.379597,82.1176709 151.402856,83.9447046 L151.402856,83.9447046 L151.470077,85.6160212 L151.493861,87.2894844 C153.562198,88.9900364 155.56239,90.859602 157.47426,92.8910809 C158.18972,93.6420379 158.068406,94.8004492 157.223329,95.3958367 C154.944686,97.0285334 152.608676,98.4792413 150.244369,99.7499334 L150.244369,99.7499334 L149.88819,101.390607 L149.488584,103.015386 C151.072395,105.177014 152.539162,107.490752 153.873505,109.930082 C154.380257,110.838817 153.969633,111.928136 153.003594,112.300497 C150.396245,113.311008 147.767783,114.139444 145.161299,114.791488 L145.161299,114.791488 L144.408797,116.288094 L143.619021,117.772194 C144.602436,120.252879 145.452062,122.854395 146.140549,125.553659 C146.40374,126.552849 145.744193,127.515108 144.708852,127.636743 C141.927417,127.967848 139.188817,128.132042 136.498189,128.120123 L136.498189,128.120123 L135.397289,129.386758 L134.264596,130.623854 C134.604931,133.283784 134.775936,136.012887 134.76872,138.798246 C134.775041,139.832437 133.884733,140.595422 132.861491,140.461029 C130.087584,140.104461 127.387641,139.572057 124.793454,138.893357 C124.338408,139.222277 123.875842,139.543046 123.407468,139.852595 C122.94593,140.167914 122.47619,140.472699 121.999959,140.763885 C121.657975,143.421028 121.140177,146.115701 120.433244,148.810486 C120.171786,149.805491 119.132476,150.338027 118.170925,149.948849 C115.577602,148.911682 113.102691,147.727167 110.757126,146.415363 C110.236474,146.623932 109.708647,146.816518 109.178772,147.001959 C108.650946,147.194545 108.117657,147.36808 107.582656,147.544683 C106.590246,150.030114 105.422039,152.516989 104.070197,154.950857 C103.572789,155.864047 102.424863,156.108164 101.597492,155.500113 C99.3444355,153.860259 97.2354285,152.099209 95.2906283,150.260149 L95.2906283,150.260149 L93.6153486,150.436427 C93.0612559,150.492227 92.4972483,150.54056 91.9411161,150.571172 C90.3636757,152.742436 88.6118315,154.865778 86.6880053,156.886385 C85.976235,157.63941 84.8082697,157.60579 84.1544002,156.798515 C82.3838392,154.654357 80.7911684,152.425687 79.3736297,150.157108 L79.3736297,150.157108 L77.7091654,149.910214 L76.0536141,149.622108 C73.9804846,151.329884 71.7531539,152.942713 69.3798434,154.435043 C68.5053771,154.982161 67.3868025,154.668935 66.9549709,153.723256 C65.7868919,151.195015 64.8000902,148.648296 63.9890851,146.100134 L63.9890851,146.100134 L62.4400819,145.451604 L60.9088868,144.756733 C58.4735017,145.906065 55.9215623,146.910997 53.2561455,147.773223 C52.2682381,148.105466 51.2674646,147.498172 51.0836272,146.486536 C50.5771089,143.753132 50.2583505,141.032896 50.1092067,138.361953 C49.6579109,138.035209 49.2117498,137.699262 48.7731182,137.353425 L48.7731182,137.353425 L47.4630406,136.309089 C44.8244812,136.813126 42.0939943,137.168279 39.2979282,137.348951 C38.267749,137.407255 37.4353517,136.591899 37.5148766,135.558864 C37.7125917,132.778152 38.0693059,130.072973 38.6000687,127.441588 L38.6000687,127.441588 L37.5579237,126.129718 L36.5520415,124.799718 C33.8683321,124.631187 31.1443537,124.286073 28.3995988,123.769095 C27.375701,123.578194 26.788967,122.57127 27.119846,121.592439 C28.0104142,118.950658 29.044577,116.412021 30.2055641,113.999376 L30.2055641,113.999376 L29.5308535,112.468752 L28.8930885,110.92238 C26.3352279,110.099253 23.7911419,109.089201 21.2625331,107.907198 C20.3140009,107.473054 19.9937522,106.356214 20.5687746,105.487774 C22.0861075,103.143039 23.7028969,100.937298 25.4413668,98.8847955 L25.4413668,98.8847955 L25.1627696,97.2354334 L24.9245322,95.5822296 C22.6614524,94.1514202 20.4391599,92.5465565 18.2833018,90.7757472 C17.4819508,90.1138469 17.4479893,88.9561491 18.2158247,88.2540541 C20.2681868,86.356371 22.3960518,84.6225905 24.5840243,83.0622815 L24.5840243,83.0622815 L24.7295367,81.3918157 L24.9171115,79.7324827 C23.0749721,77.7815167 21.3389348,75.6764246 19.6970276,73.4206393 C19.0821614,72.5867177 19.3566839,71.456534 20.2612221,70.9600667 C22.7281624,69.6315966 25.2288713,68.4841506 27.7373556,67.5174506 L27.7373556,67.5174506 L28.2942682,65.9351875 C28.4836659,65.4118425 28.6826413,64.885751 28.8922142,64.3695065 C27.603994,62.0277657 26.4328105,59.5519576 25.4131966,56.9631052 C25.0336967,56.010151 25.5599012,54.962426 26.5744389,54.7230544 C29.2917511,54.0418083 31.9877683,53.5393355 34.6607792,53.2187041 L34.6607792,53.2187041 L35.5938125,51.8275361 L36.5630904,50.4543234 C35.8981469,47.8642788 35.3885242,45.1833084 35.0393479,42.420251 C34.9044281,41.3894331 35.686366,40.528667 36.7178839,40.5292531 C39.5206965,40.5347757 42.2618545,40.7229131 44.9249519,41.0725987 L44.9249519,41.0725987 L46.1793432,39.952657 L47.4600553,38.8612475 C47.4600324,36.186202 47.6296787,33.452196 47.991209,30.6915165 C48.1216912,29.6644866 49.0923178,29.0099042 50.0963409,29.2760863 C52.797568,29.9756355 55.4114936,30.849691 57.8984677,31.8503484 C58.3856338,31.5792226 58.8902349,31.3237144 59.3890182,31.0750286 L59.3890182,31.0750286 L60.9031493,30.3367581 C61.5778798,27.7465592 62.4290989,25.1392556 63.4762809,22.5556513 C63.8550308,21.5991735 64.9578899,21.1978887 65.8622659,21.7039682 C68.2991301,23.0540202 70.6083511,24.5463354 72.7684061,26.1329657 C73.3143321,25.9944637 73.8578637,25.8566484 74.4082237,25.7426463 C74.9565351,25.6215002 75.5048466,25.5003542 76.0569091,25.4013266 C77.352277,23.0506564 78.8220578,20.729865 80.4730705,18.480808 Z M89.1394965,27.1237612 L89.0854529,27.1341037 C84.7295775,27.071376 80.3618399,27.4733545 76.0838177,28.3418377 L76.0838177,28.3418377 L76.0270428,28.3426549 L75.0275636,28.5622458 L74.0379992,28.7893022 L73.9812151,28.8081619 C69.731162,29.8284066 65.5944318,31.2980783 61.6616771,33.1808742 L61.6616771,33.1808742 L61.6042103,33.1973526 L60.6928529,33.6519642 L59.7876501,34.1099653 L59.7387232,34.147189 C55.8736143,36.1755235 52.2398395,38.6220229 48.9030959,41.4266148 L48.9030959,41.4266148 L48.8531494,41.4512453 L48.0829377,42.117942 L47.3267467,42.7883496 L47.2836284,42.8367933 C44.0572939,45.7643533 41.1368948,49.0268356 38.6110347,52.5807938 L38.6110347,52.5807938 L38.5692912,52.6159577 L37.9840264,53.4486771 L37.4161963,54.2970141 L37.3935994,54.3447276 C34.9833014,57.9763651 32.98363,61.8742485 31.4052461,65.9219273 L31.4052461,65.9219273 L31.3706768,65.9730739 L31.0158715,66.9226857 L30.6726924,67.8766951 L30.6637702,67.9359501 C29.2396056,72.0424922 28.2439119,76.2967699 27.7437701,80.6073889 L27.7437701,80.6073889 L27.7252701,80.6693904 L27.6122408,81.6759529 L27.5275992,82.6821068 L27.5313321,82.7403103 C27.1662811,87.0611578 27.2926851,91.4240586 27.8828936,95.7235478 L27.8828936,95.7235478 L27.8849148,95.7848191 L28.0260073,96.7829416 L28.1906983,97.7820285 L28.2118752,97.837807 C28.9505307,102.11277 30.1584626,106.325329 31.7967494,110.339749 L31.7967494,110.339749 L31.8076657,110.395893 L32.1994837,111.337583 L32.6094376,112.261188 L32.6388267,112.309458 C34.4166837,116.268394 36.6214722,120.035328 39.2200705,123.503785 L39.2200705,123.503785 L39.2484307,123.557504 L39.8533913,124.365918 L40.4833252,125.162016 L40.5311871,125.202412 C43.2389286,128.590608 46.3377485,131.670803 49.7223271,134.401037 L49.7223271,134.401037 L49.7612939,134.44656 L50.5565085,135.068986 L51.3633494,135.695809 L51.4184037,135.716102 C54.9032579,138.317076 58.664639,140.563004 62.6311138,142.3584 L62.6311138,142.3584 L62.6800043,142.393346 L63.6066586,142.805415 L64.5442656,143.201458 L64.6020602,143.213234 C68.6260562,144.883897 72.8322302,146.105444 77.1220818,146.877773 L77.1220818,146.877773 L77.178165,146.892617 L78.1753961,147.062816 L79.1842625,147.21937 L79.2441147,147.220248 C83.555252,147.831845 87.9343439,147.975538 92.2852839,147.650535 L92.2852839,147.650535 L92.3451362,147.651413 L93.356861,147.564898 L94.3692777,147.462722 L94.4267445,147.446244 C98.7603225,146.961284 103.04591,146.010741 107.190807,144.623773 L107.190807,144.623773 L107.250322,144.614437 L108.209842,144.282603 L109.172448,143.934421 L109.221712,143.90741 C113.309907,142.376918 117.22834,140.40803 120.887726,138.041809 L120.887726,138.041809 L120.939721,138.024322 L121.792992,137.45751 L122.630877,136.882225 L122.675015,136.846374 C126.244858,134.348624 129.547096,131.468882 132.501664,128.271338 L132.501664,128.271338 L132.549908,128.231733 L133.229531,127.475043 L133.902316,126.712581 L133.931414,126.660426 C136.776247,123.360338 139.254937,119.750323 141.321953,115.915597 L141.321953,115.915597 L141.356176,115.87228 L141.831005,114.970721 L142.293179,114.070212 L142.312362,114.010592 C144.235765,110.108807 145.750565,106.002047 146.810535,101.791189 L146.810535,101.791189 L146.831766,101.738713 L147.064491,100.751948 L147.280801,99.7621584 L147.281856,99.7025819 C148.185887,95.453971 148.627561,91.1111524 148.578781,86.7749585 L148.578781,86.7749585 L148.587703,86.7157035 L148.571113,85.6999203 L148.535368,84.6896301 L148.51898,84.6324782 C148.333051,80.2969545 147.651189,75.9850897 146.52841,71.7893473 L146.52841,71.7893473 L146.517494,71.7332037 L146.252582,70.7551232 L145.959619,69.7876633 L145.937076,69.7271222 C144.666525,65.57633 142.958125,61.5613972 140.820719,57.7854506 L140.820719,57.7854506 L140.805013,57.7306802 L140.298589,56.8502006 L139.775741,55.9847392 L139.736091,55.9368346 C137.480309,52.2360657 134.803722,48.7848165 131.784957,45.6584723 L131.784957,45.6584723 L131.753174,45.6108892 L131.045225,44.8861266 L130.326323,44.1773904 L130.274355,44.1407494 C127.148823,41.130065 123.687949,38.4500564 119.989179,36.1604036 L119.989179,36.1604036 L119.941318,36.1200081 L119.072175,35.6012485 L118.191744,35.088303 L118.139767,35.0697046 C114.354742,32.9130242 110.339678,31.1650635 106.177314,29.8794111 L106.177314,29.8794111 L106.126711,29.8475331 L105.150747,29.552688 L104.175459,29.2782665 L104.11424,29.2726264 C99.912136,28.1194942 95.5876969,27.4343974 91.2360092,27.205533 L91.2360092,27.205533 L91.1788974,27.1961384 L90.163476,27.15228 L89.1394965,27.1237612 Z M142.505801,98.7158315 C138.377788,118.2177 123.836829,134.896601 103.246933,140.800659 C82.6618256,146.703343 61.4895274,140.265054 47.6519638,125.914732 L47.6519638,125.914732 L51.2460369,124.884148 C64.294065,137.520293 83.60009,143.071157 102.355836,137.693033 C121.111581,132.31491 134.542509,117.376876 138.911728,99.7464154 L138.911728,99.7464154 Z M136.632209,100.400057 C132.146271,116.855317 119.432757,130.698528 101.80001,135.754637 C84.1720511,140.809373 66.0522011,135.807486 53.5255556,124.230506 L53.5255556,124.230506 L68.0790372,120.057363 C76.8781354,125.358402 87.7721288,127.156903 98.4561754,124.093302 C109.140222,121.029701 117.428187,113.730862 122.081122,104.572514 L122.081122,104.572514 Z M75.0462798,81.3559118 L75.3811796,82.6024525 C76.1449932,85.5201453 76.7854711,88.5015234 77.3026136,91.5465869 L77.3026136,91.5465869 L77.6169693,93.4168442 L88.0242871,90.4325938 L89.2248476,94.6194459 L77.9801595,97.8438083 L77.8881649,98.6839371 L78.4885472,98.7509632 C83.6459881,99.3283001 87.6107343,99.8131767 90.3827859,100.205593 L90.3827859,100.205593 L89.298295,105.066167 L87.5295637,104.710526 C83.9801508,104.01022 80.3590364,103.375766 76.6662203,102.807164 C75.7496611,104.51254 74.2388374,106.166386 72.1337495,107.768704 C70.1132703,109.322101 67.2643017,111.039086 63.5868437,112.91966 C62.1623632,111.219771 61.0101286,109.91034 60.1301399,108.991366 C64.3919795,107.04186 67.4445083,105.3898 69.2877263,104.035186 C71.2627167,102.58114 72.4968464,100.994305 72.9901156,99.2746804 L72.9901156,99.2746804 L58.225054,103.508494 L57.0244935,99.3216416 L66.0817651,96.7245108 L65.2186856,96.4975358 C62.893908,95.8940599 60.3832722,95.3049105 57.6867782,94.7300876 L57.6867782,94.7300876 L58.7624555,90.8707337 L59.6391489,91.022522 C62.2879265,91.4947186 65.1049788,92.1184018 68.0903058,92.8935716 L68.0903058,92.8935716 L67.0900274,96.4353962 L73.1054228,94.7105093 L73.0812318,94.5393526 C73.0105095,94.0591438 72.8900827,93.3886084 72.7199517,92.5277464 C72.0718857,88.9777247 71.3149975,85.6931686 70.4492873,82.6740782 L70.4492873,82.6740782 L75.0462798,81.3559118 Z M45.0890902,99.7604528 C45.5261034,101.284499 44.6391478,102.86347 43.1138816,103.300833 C41.5886155,103.738196 39.9997072,102.869168 39.562694,101.345121 C39.1277293,99.8282191 40.0133193,98.2444855 41.5385854,97.8071225 C43.0638517,97.3697594 44.6541254,98.2435505 45.0890902,99.7604528 Z M98.0511016,67.4171423 L98.6781662,67.7638675 C100.536293,68.8145413 102.18682,69.9596978 103.629747,71.1993371 C105.374736,72.684026 107.485871,74.8651444 109.963154,77.7426922 C112.774587,81.054594 115.354076,83.5576074 117.701619,85.2517325 C119.957938,86.8857088 122.739877,88.2888242 126.047436,89.4610786 C125.434968,90.8080073 124.621108,92.6565481 123.605856,95.0067006 C121.076357,93.7099778 118.993016,92.507253 117.355832,91.3985263 C115.5362,90.1695024 113.798582,88.732018 112.142979,87.0860732 C110.497176,85.4743067 108.619716,83.3556431 106.510599,80.7300823 C106.317355,84.6569708 105.629705,88.257105 104.44765,91.530485 C103.218514,94.9406609 101.25048,98.5688771 98.5435477,102.415134 C98.3007855,102.213495 97.9219825,101.90291 97.4071389,101.48338 C95.9962191,100.346762 94.9380498,99.5158694 94.232631,98.9907019 C97.2162574,95.0774341 99.2843562,91.389701 100.436927,87.9275026 C101.626861,84.3806132 102.132529,80.2963263 101.95393,75.674642 C99.9335103,73.8743861 97.6447285,72.3421897 95.0875845,71.0780529 L95.0875845,71.0780529 L98.0511016,67.4171423 Z M60.2606305,84.4859696 L61.0532775,84.6077756 C64.1946244,85.0998824 66.9850755,85.6505845 69.4246309,86.2598817 L69.4246309,86.2598817 L68.2466652,90.4074867 C65.3496585,89.5490426 62.3225542,88.8388692 59.1653522,88.2769667 L59.1653522,88.2769667 L60.2606305,84.4859696 Z M82.2279903,73.5078689 L83.3599473,77.4554722 L83.4193556,85.9828105 C81.9801855,85.9516224 80.4751705,86.0132921 78.9043105,86.16782 L78.9043105,86.16782 L78.9242928,78.9493074 L54.2645893,86.0203636 L53.0738293,81.86769 L82.2279903,73.5078689 Z M136.34622,73.5928918 C136.783234,75.116938 135.896278,76.695909 134.373407,77.1325853 C132.845746,77.5706351 131.256837,76.7016067 130.819824,75.1775605 C130.384859,73.6606582 131.270449,72.0769245 132.798111,71.6388747 C134.320982,71.2021985 135.911256,72.0759895 136.34622,73.5928918 Z M72.6644053,34.1467101 C93.5152968,28.1678131 114.935772,34.8570789 128.758779,49.5904125 L128.758779,49.5904125 L125.250905,50.5962791 C112.198971,37.566954 92.5869563,31.7894228 73.5534541,37.2471917 C54.5223465,42.704274 40.9520398,57.9966826 36.7878617,75.9626486 L36.7878617,75.9626486 L33.2775945,76.9692015 C37.1926914,57.1495485 51.8159082,40.1249204 72.6644053,34.1467101 Z M74.1104411,39.1896363 C92.0161562,34.0552551 110.431735,39.2841746 122.971182,51.2492061 L122.971182,51.2492061 L108.614046,55.3660487 C99.6885867,49.6966336 88.4578128,47.6906037 77.4529095,50.846209 C66.4504008,54.0011276 57.9868038,61.6544275 53.4219177,71.1921367 L53.4219177,71.1921367 L39.0647811,75.3089794 C43.360729,58.5164761 56.2071205,44.3233309 74.1104411,39.1896363 Z" id="形状结合"></path>
        </g>
    </g>
</svg>