<?xml version="1.0" encoding="UTF-8"?>
<svg width="176px" height="176px" viewBox="0 0 176 176" version="1.1" xmlns="http://www.w3.org/2000/svg" xmlns:xlink="http://www.w3.org/1999/xlink">
    <title>WT_ADJUST</title>
    <g id="页面-1" stroke="none" stroke-width="1" fill="none" fill-rule="evenodd">
        <g id="WT_ADJUST" fill="#439BDA" fill-rule="nonzero">
            <path d="M81.4034487,18.1903275 C82.0241144,17.3844573 83.1817053,17.3036254 83.9033524,18.0311131 C85.8515532,19.9784286 87.6396616,22.0261718 89.2602889,24.122904 C89.8169177,24.1400502 90.3710835,24.1571964 90.9252493,24.1988371 C91.4794152,24.2331294 92.033581,24.2674218 92.5852839,24.3237592 C94.457133,22.4425789 96.4866115,20.6373316 98.6687934,18.9496581 C99.4766441,18.3128002 100.609605,18.533251 101.12929,19.4077059 C102.535639,21.7836759 103.762193,24.1988371 104.811414,26.6262456 C105.343413,26.7830106 105.872949,26.9446745 106.39756,27.1136868 C106.927096,27.2851486 107.454169,27.4615092 107.976317,27.6476677 C110.257017,26.2980188 112.678106,25.0585953 115.217417,23.9612401 C116.153341,23.5546308 117.207488,24.0322742 117.483339,25.0267524 C118.24932,27.6697128 118.830578,30.3102237 119.232041,32.9262401 L119.232041,32.9262401 L120.645779,33.7933466 L122.037351,34.697195 C124.59144,33.9550106 127.239121,33.3622428 129.973006,32.9213412 C130.990208,32.7572278 131.879337,33.4896144 131.901503,34.5110365 C131.980318,37.2617729 131.884263,39.9659696 131.625652,42.5966827 L131.625652,42.5966827 L132.78078,43.7871171 L133.903889,45.006945 C136.558959,44.9138657 139.282992,44.9848999 142.036581,45.2371936 C143.056246,45.3327223 143.743412,46.2512674 143.50943,47.2530939 C142.90108,49.9327961 142.137562,52.5292168 141.226267,55.0203111 L141.226267,55.0203111 L142.048896,56.4556909 L142.83458,57.9155652 C145.428076,58.4813889 148.041276,59.2260228 150.654475,60.1445679 C151.619955,60.4874914 152.050973,61.5603521 151.575622,62.4666499 C150.312124,64.9185529 148.918089,67.2406348 147.418147,69.4206485 L147.418147,69.4206485 L147.851628,71.0176922 L148.243238,72.6245337 C150.619994,73.8174176 152.954879,75.1915611 155.245432,76.7322673 C156.102541,77.3054395 156.240467,78.4444354 155.563153,79.2062154 C153.715934,81.2686553 151.7899,83.1620829 149.789977,84.9060938 L149.789977,84.9060938 L149.814606,86.5619244 L149.789977,88.2153056 C151.7899,89.9544176 153.715934,91.857643 155.563153,93.9225323 C156.240467,94.6794135 156.102541,95.8208588 155.245432,96.3891321 C152.954879,97.9347372 150.619994,99.3039818 148.243238,100.501765 L148.243238,100.501765 L147.851628,102.108606 L147.418147,103.70565 C148.920552,105.885664 150.312124,108.207745 151.575622,110.659648 C152.050973,111.568396 151.619955,112.636357 150.654475,112.971933 C148.043739,113.902725 145.428076,114.644909 142.83458,115.208284 L142.83458,115.208284 L142.048896,116.670607 L141.226267,118.105987 C142.142488,120.592183 142.906005,123.191053 143.50943,125.873204 C143.743412,126.875031 143.056246,127.798475 142.036581,127.889105 C139.282992,128.138949 136.558959,128.209983 133.903889,128.119353 L133.903889,128.119353 L132.78078,129.336732 L131.625652,130.532065 C131.884263,133.157879 131.982781,135.862076 131.901503,138.615262 C131.879337,139.636684 130.990208,140.37152 129.973006,140.204957 C127.239121,139.761606 124.59144,139.171288 122.037351,138.426654 L122.037351,138.426654 L120.645779,139.330502 L119.232041,140.197609 C118.830578,142.818524 118.24932,145.459035 117.483339,148.104445 C117.207488,149.089125 116.153341,149.571667 115.217417,149.165058 C112.678106,148.070152 110.257017,146.82828 107.976317,145.476181 C107.454169,145.664789 106.927096,145.843599 106.39756,146.010162 C105.872949,146.184073 105.343413,146.345737 104.811414,146.492704 C103.762193,148.925012 102.535639,151.345072 101.12929,153.713693 C100.609605,154.588148 99.4766441,154.811049 98.6687934,154.17909 C96.4866115,152.486517 94.457133,150.686169 92.5852839,148.80009 C92.033581,148.856427 91.4794152,148.895618 90.9252493,148.927461 C90.3710835,148.966652 89.8169177,148.986248 89.2602889,149.008293 C87.6396616,151.100127 85.8515532,153.14542 83.9033524,155.090286 C83.1817053,155.822673 82.0241144,155.741841 81.4034487,154.93842 C79.7089327,152.765755 78.1843608,150.517157 76.8371221,148.239165 L76.8371221,148.239165 L75.1967912,147.950129 C74.6549402,147.852151 74.1057002,147.744375 73.5687751,147.621902 C71.4777227,149.255688 69.2339667,150.796394 66.854748,152.192583 C65.9730086,152.714316 64.8720658,152.364045 64.4706034,151.418555 C63.3721236,148.898068 62.4657546,146.345737 61.7367186,143.803204 L61.7367186,143.803204 L60.2219986,143.114908 L58.7269823,142.38987 C56.2911156,143.448034 53.7345638,144.373927 51.0721048,145.145505 C50.091847,145.427192 49.1140521,144.824627 48.9613487,143.808103 C48.5401826,141.08676 48.2963497,138.39726 48.2199979,135.7543 L48.2199979,135.7543 L46.9244813,134.715732 L45.6585202,133.637972 C43.0305427,134.066627 40.3311393,134.326269 37.562773,134.419348 C36.533256,134.465887 35.747572,133.615927 35.8485533,132.604303 C36.11209,129.868263 36.5504967,127.195909 37.136681,124.616635 C36.7967927,124.183081 36.4642931,123.74218 36.1416455,123.29393 L36.1416455,123.29393 L35.1810913,121.944281 C32.5358731,121.704234 29.8438585,121.297625 27.1370662,120.707307 C26.1420307,120.481957 25.5730871,119.480131 25.9302162,118.519945 C26.8759925,115.930873 27.9523058,113.456924 29.1739336,111.10055 L29.1739336,111.10055 L28.5409531,109.569642 L27.9473799,108.031385 C25.4425502,107.139784 22.9475724,106.069373 20.4796872,104.829949 C19.5585404,104.369452 19.2753001,103.252501 19.8565585,102.412338 C21.4230006,100.144144 23.097813,98.0131198 24.8588289,96.0364107 L24.8588289,96.0364107 L24.6346996,94.3977263 L24.4499776,92.754143 C22.2431661,91.274673 20.1003915,89.6212919 18.0191909,87.8086963 C17.2359698,87.137546 17.2359698,85.9887523 18.0191909,85.3200515 C20.1003915,83.5050064 22.2382402,81.8491758 24.4499776,80.3721553 L24.4499776,80.3721553 L24.6346996,78.728572 L24.8588289,77.092337 C23.097813,75.115628 21.4230006,72.9846034 19.8565585,70.71396 C19.2753001,69.866449 19.5585404,68.7568466 20.4796872,68.2987988 C22.9475724,67.0544764 25.4425502,65.9865146 27.9473799,65.0998124 L27.9473799,65.0998124 L28.5409531,63.5517578 L29.1714706,62.0257482 C27.9523058,59.6693739 26.8759925,57.1954258 25.9302162,54.603904 C25.5730871,53.6437182 26.1420307,52.6443411 27.1370662,52.4189914 C29.8438585,51.8286731 32.5334101,51.4196144 35.1810913,51.1844668 L35.1810913,51.1844668 L36.1416455,49.8323685 C36.4642931,49.3865679 36.7967927,48.9407674 37.136681,48.5072141 C36.5504967,45.930389 36.11209,43.2580351 35.8485533,40.5195461 C35.747572,39.5103712 36.533256,38.6579614 37.562773,38.7069504 C40.3311393,38.8000297 43.0305427,39.0572223 45.6585202,39.4809778 L45.6585202,39.4809778 L46.9244813,38.413016 L48.2199979,37.3719983 C48.2938867,34.7290379 48.5401826,32.0419873 48.9613487,29.3206445 C49.1140521,28.3041212 50.091847,27.6991062 51.0721048,27.9807934 C53.7345638,28.7499218 56.2886526,29.6758152 58.7245194,30.7339792 L58.7245194,30.7339792 L60.2219986,30.0113904 L61.7367186,29.3230939 C62.4657546,26.7805611 63.3721236,24.2282305 64.4681405,21.7028439 C64.8720658,20.7622538 65.9730086,20.4046335 66.854748,20.9312661 C69.2315038,22.3323535 71.4777227,23.8755092 73.5687751,25.5043958 C74.1057002,25.3794737 74.6549402,25.2741472 75.1967912,25.1737196 L75.1967912,25.1737196 L76.8371221,24.8846841 C78.1843608,22.6066923 79.7040067,20.3605434 81.4034487,18.1903275 Z M89.6839179,26.996113 C85.3663502,26.8075051 81.0340048,27.076945 76.782937,27.7946349 L76.782937,27.7946349 L76.723826,27.7946349 L75.7337163,27.9783439 L74.7485326,28.1669518 L74.6918846,28.1889969 C70.4654464,29.0634518 66.3449155,30.398404 62.4091065,32.1546622 L62.4091065,32.1546622 L62.3549214,32.16446 L61.4411635,32.5882155 L60.5397204,33.0193193 L60.4855353,33.0536117 C56.6211521,34.9568371 52.9562687,37.2617729 49.5869403,39.9512729 L49.5869403,39.9512729 L49.5376811,39.9733179 L48.7544601,40.6052769 L47.9835538,41.2568316 L47.9490724,41.2960229 C44.6684106,44.0908493 41.7054706,47.2506444 39.1021226,50.6676321 L39.1021226,50.6676321 L39.0553263,50.7068234 L38.4592902,51.5126936 L37.8731059,52.3259122 L37.8484763,52.3798002 C35.3756651,55.894766 33.2698349,59.6669245 31.6196522,63.6276908 L31.6196522,63.6276908 L31.5851708,63.6815788 L31.2034121,64.6074723 L30.8487459,65.5407141 L30.8364311,65.5970515 C29.3118593,69.6043575 28.242935,73.7855747 27.6321211,78.0329272 L27.6321211,78.0329272 L27.6173433,78.0917141 L27.4794176,79.0788438 L27.3636585,80.073322 L27.3685844,80.1321089 C26.905548,84.3966075 26.905548,88.7296908 27.3685844,92.99174 L27.3685844,92.99174 L27.3636585,93.0480774 L27.4794176,94.0499039 L27.6173433,95.0394832 L27.6321211,95.0933711 C28.242935,99.3407236 29.3118593,103.521941 30.8364311,107.526797 L30.8364311,107.526797 L30.8487459,107.585584 L31.2034121,108.518826 L31.5851708,109.447169 L31.6196522,109.498607 C33.2698349,113.456924 35.3756651,117.229083 37.8484763,120.746498 L37.8484763,120.746498 L37.8731059,120.800386 L38.4592902,121.608706 L39.0553263,122.424374 L39.1021226,122.458666 C41.7054706,125.880553 44.6684106,129.040348 47.9490724,131.827826 L47.9490724,131.827826 L47.9860168,131.874366 L48.7544601,132.518572 L49.5376811,133.150531 L49.5894033,133.177475 C52.9587316,135.862076 56.6236151,138.169461 60.4904612,140.072687 L60.4904612,140.072687 L60.5397204,140.10208 L61.4411635,140.535633 L62.3573843,140.959389 L62.4140324,140.976535 C66.3449155,142.732793 70.4679093,144.062846 74.6918846,144.939751 L74.6918846,144.939751 L74.7485326,144.956897 L75.7337163,145.150404 L76.723826,145.329214 L76.782937,145.329214 C81.0340048,146.049353 85.3663502,146.313894 89.6839179,146.125286 L89.6839179,146.125286 L89.7430289,146.132635 L90.7454533,146.078747 L91.7552666,146.010162 L91.8094517,145.997915 C96.1122416,145.657441 100.373161,144.85402 104.496155,143.602349 L104.496155,143.602349 L104.55034,143.5999 L105.51582,143.293718 L106.468985,142.975289 L106.520708,142.953244 C110.594442,141.552157 114.517936,139.715066 118.197598,137.481165 L118.197598,137.481165 L118.254246,137.45667 L119.10643,136.922689 L119.953688,136.38136 L119.995558,136.339719 C123.598867,133.978446 126.93864,131.222811 129.948377,128.141398 L129.948377,128.141398 L129.99271,128.109556 L130.689727,127.382068 L131.37443,126.652131 L131.408911,126.600692 C134.300426,123.416403 136.85944,119.925931 139.01453,116.21256 L139.01453,116.21256 L139.049011,116.16847 L139.53914,115.294015 L140.014491,114.412211 L140.031732,114.355874 C142.048896,110.56412 143.652282,106.556814 144.787706,102.422136 L144.787706,102.422136 L144.812336,102.368248 L145.07341,101.398265 L145.31478,100.428281 L145.31478,100.369494 C146.319667,96.1980747 146.84674,91.9139804 146.923092,87.6200884 L146.923092,87.6200884 L146.928018,87.5637509 L146.942796,86.5619244 L146.928018,85.5625474 L146.923092,85.4988616 C146.84674,81.207419 146.317204,76.9257742 145.31478,72.7543548 L145.31478,72.7543548 L145.31478,72.6980173 L145.07341,71.7231348 L144.812336,70.7580501 L144.787706,70.7017127 C143.652282,66.5694846 142.048896,62.5597291 140.031732,58.7655256 L140.031732,58.7655256 L140.014491,58.7116376 L139.53914,57.8298343 L139.049011,56.9602783 L139.009604,56.9112892 C136.85944,53.1979176 134.300426,49.7074463 131.408911,46.5231567 L131.408911,46.5231567 L131.37443,46.4717182 L130.689727,45.741781 L129.99271,45.0142933 L129.948377,44.9824504 C126.93864,41.9010379 123.598867,39.1454026 119.993095,36.7890283 L119.993095,36.7890283 L119.953688,36.7449382 L119.10643,36.19871 L118.254246,35.6720775 L118.197598,35.6500324 C114.517936,33.4087824 110.594442,31.5790406 106.520708,30.1755037 L106.520708,30.1755037 L106.468985,30.1510092 L105.51582,29.8325802 L104.55034,29.5263986 L104.496155,29.5214996 C100.373161,28.2747278 96.1122416,27.4664081 91.8094517,27.1259341 L91.8094517,27.1259341 L91.7552666,27.1112374 L90.7454533,27.0475516 L89.7430289,26.9936636 Z M41.8904388,112.116339 C50.8482218,127.682616 67.6850116,138.220165 86.9773719,138.220165 C106.269732,138.220165 123.106522,127.682616 132.064305,112.116339 L132.064305,112.116339 L135.761207,112.116339 C126.522646,129.527054 108.156359,141.416702 86.9773719,141.416702 C65.8033107,141.416702 47.4345602,129.527054 38.1935369,112.116339 L38.1935369,112.116339 Z M59.2050427,112.116339 C66.1234954,119.552879 75.9876474,124.231336 86.9773719,124.231336 C97.9670963,124.231336 107.833711,119.552879 114.752164,112.116339 L114.752164,112.116339 L129.719568,112.116339 C120.971136,126.533822 105.114604,136.22631 86.9773719,136.22631 C68.8450655,136.22631 52.9860705,126.533822 44.2351761,112.116339 L44.2351761,112.116339 Z M85.392418,72.167222 L85.392418,99.1320658 L85.3883555,99.4519095 C85.3504388,100.916805 85.0471055,101.993785 84.4783555,102.682847 C83.8572617,103.432847 82.8025742,103.843003 81.314293,103.913316 C80.3650742,103.97191 78.9646836,104.018785 77.1131211,104.053941 C76.9490586,103.374253 76.579918,102.00316 76.0056992,99.9406595 C76.954918,99.9875345 78.126793,100.010972 79.5213242,100.010972 C80.2127305,100.010972 80.6902695,99.8762064 80.9539414,99.6066751 C81.2176133,99.3371439 81.3494492,98.8508158 81.3494492,98.1476908 L81.3494492,98.1476908 L81.3494492,75.9113626 L67.954918,75.9113626 L67.954918,88.1457376 L67.9538193,88.6688242 C67.942833,91.2519846 67.8494492,93.3510599 67.673668,94.9660501 C67.486168,96.7941751 67.1463242,98.4465189 66.6541367,99.9230814 C66.1971055,101.305894 65.5056992,102.84691 64.579918,104.546128 C63.5486679,103.948472 62.2068711,103.233628 60.5545273,102.401597 C61.5037461,100.913316 62.2010117,99.6066751 62.6463242,98.4816751 C63.1267929,97.2394876 63.4607773,95.8273783 63.6482773,94.245347 C63.8240586,92.7570658 63.9119492,90.7238626 63.9119492,88.1457376 L63.9119492,88.1457376 L63.9119492,72.167222 L85.392418,72.167222 Z M104.324059,70.479722 L109.826012,70.9367533 L109.768394,71.0368509 C109.664228,71.2142598 109.519371,71.4445658 109.333824,71.7277689 C109.240074,71.8801126 109.169762,71.9914408 109.122887,72.0617533 C112.134605,76.057847 116.663902,79.3332376 122.710777,81.8879251 C122.335777,82.4973001 121.779137,83.4523783 121.040855,84.7531595 C120.665855,85.4094095 120.384605,85.8957376 120.197105,86.2121439 C118.568199,85.3566751 117.320152,84.6535501 116.452965,84.1027689 C116.370934,86.5871439 116.288902,88.7082376 116.206871,90.4660501 C116.136559,92.1887064 115.741051,93.4426126 115.020348,94.2277689 C114.299644,95.0129251 113.142418,95.4289408 111.548668,95.4758158 C110.482262,95.5461283 108.320152,95.5812845 105.06234,95.5812845 C104.956871,94.5500345 104.675621,93.1262064 104.21859,91.3098001 C106.538902,91.4269876 108.24398,91.4855814 109.333824,91.4855814 C110.165855,91.4855814 110.745934,91.339097 111.074059,91.0461283 C111.390465,90.776597 111.572105,90.3019876 111.61898,89.6223001 C111.665855,89.0715189 111.71273,88.2219095 111.759605,87.073472 L111.759605,87.073472 L111.759605,86.9855814 L99.8064805,86.9855814 L99.8064805,96.495347 L99.8105088,96.7352152 C99.8400498,97.5919046 100.032066,98.1974955 100.386559,98.5519876 C100.773277,98.9387064 101.441246,99.1320658 102.390465,99.1320658 L102.390465,99.1320658 L113.464684,99.1320658 L113.722027,99.1264408 C114.475074,99.0926908 115.057262,98.9070658 115.46859,98.5695658 C115.925621,98.1945658 116.230309,97.5617533 116.382652,96.6711283 C116.570152,95.8508158 116.804527,94.5969095 117.085777,92.9094095 C118.84359,93.589097 120.326012,94.0930033 121.533043,94.4211283 C121.523668,94.4680033 121.512418,94.5242533 121.499293,94.5898783 L121.499293,94.5898783 L121.441285,94.8799173 L121.441285,94.8799173 L121.427574,94.948472 C121.052574,96.9875345 120.736168,98.4406595 120.478355,99.307847 C120.079918,100.737535 119.40023,101.774644 118.439293,102.419175 C117.443199,103.087144 116.03109,103.421128 114.202965,103.421128 L114.202965,103.421128 L100.720543,103.421128 L100.401316,103.416734 C98.6206442,103.366929 97.3208034,102.893785 96.501793,101.9973 C95.6346055,101.048081 95.2010117,99.5187845 95.2010117,97.4094095 L95.2010117,97.4094095 L95.2010117,85.0871439 L95.0537041,85.1740176 C94.5404035,85.476187 93.8043498,85.9042603 92.845543,86.4582376 C92.5525742,86.6223001 92.329918,86.7512064 92.1775742,86.8449564 C91.3221055,85.1574564 90.5076523,83.7512064 89.7342148,82.6262064 C96.5076523,79.2512064 101.370934,75.2023783 104.324059,70.479722 L104.324059,70.479722 Z M60.4842148,81.0793314 L60.4842148,93.4367533 L60.6803208,93.1733561 C61.1545639,92.5491495 61.7454453,91.8576517 62.4529648,91.0988626 L62.4529648,91.0988626 L62.4715195,91.2014017 L62.5144883,91.4592142 C62.5379258,91.6056986 62.5642929,91.7785501 62.5935898,91.9777689 C62.8865586,93.8058939 63.0974961,95.0539408 63.2264023,95.7219095 C61.9724961,97.057847 60.7771836,98.3937845 59.6404648,99.729722 C58.8318711,100.702378 58.2342148,101.452378 57.8474961,101.979722 L57.8474961,101.979722 L55.3689804,98.6750345 L55.5354006,98.4620168 C56.1744538,97.6016247 56.4939804,96.6413807 56.4939804,95.5812845 L56.4939804,95.5812845 L56.4939804,85.3683939 L54.0506211,85.3683939 L54.0506211,81.0793314 L60.4842148,81.0793314 Z M79.6971055,90.0090189 L79.6971055,99.9055033 L69.5545273,99.9055033 L69.5545273,90.0090189 L79.6971055,90.0090189 Z M76.1814805,93.4367533 L72.9471055,93.4367533 L72.9471055,96.5305033 L76.1814805,96.5305033 L76.1814805,93.4367533 Z M40.0434656,83.7350101 C41.6123707,83.7350101 42.8857207,84.9989281 42.8857207,86.55923 C42.8857207,88.1268803 41.6123707,89.3858994 40.0434656,89.3858994 C38.4745605,89.3858994 37.2012106,88.1268803 37.2012106,86.55923 C37.2012106,84.9989281 38.4745605,83.7350101 40.0434656,83.7350101 Z M133.913987,83.7350101 C135.480429,83.7350101 136.753779,84.9989281 136.753779,86.55923 C136.753779,88.1268803 135.480429,89.3858994 133.913987,89.3858994 C132.342619,89.3858994 131.069269,88.1268803 131.069269,86.55923 C131.069269,84.9989281 132.342619,83.7350101 133.913987,83.7350101 Z M76.5681992,76.6496439 L76.5681992,78.8293314 L79.8201523,78.8293314 L79.8201523,82.2394876 L76.5681992,82.2394876 L76.5681992,84.5949564 L80.3123398,84.5949564 L80.3123398,88.0402689 L68.9568711,88.0402689 L68.9568711,84.5949564 L72.7713242,84.5949564 L72.7713242,82.2394876 L69.5896836,82.2394876 L69.5896836,78.8293314 L72.7713242,78.8293314 L72.7713242,76.6496439 L76.5681992,76.6496439 Z M106.591637,75.542222 C104.470543,78.1086283 101.804527,80.5285501 98.5935898,82.8019876 L98.5935898,82.8019876 L114.466637,82.8019876 C111.302574,80.6574564 108.677574,78.2375345 106.591637,75.542222 Z M58.4978867,70.9719095 L58.7718723,71.3171044 C59.9711907,72.8397647 61.3271278,74.7110278 62.8396836,76.9308939 L62.8396836,76.9308939 L59.0603867,79.3918314 C57.9236679,77.5285501 56.5701523,75.448472 54.9998398,73.151597 L54.9998398,73.151597 L58.4978867,70.9719095 Z M86.9773719,31.7113111 C108.424821,31.7113111 126.961053,43.9071403 136.083854,61.6779258 L136.083854,61.6779258 L132.475619,61.6779258 C123.62128,45.7368821 106.555435,34.9004996 86.9773719,34.9004996 C67.4017713,34.9004996 50.3359263,45.7368821 41.4815876,61.6779258 L41.4815876,61.6779258 L37.8708892,61.6779258 C46.9936905,43.9071403 65.5323852,31.7113111 86.9773719,31.7113111 Z M86.9773719,36.8985189 C105.395382,36.8985189 121.47358,46.8873905 130.130882,61.677191 L130.130882,61.677191 L115.362978,61.677191 C108.424821,53.8560858 98.2971328,48.888594 86.9773719,48.888594 C75.6600739,48.888594 65.5299222,53.8560858 58.5917659,61.677191 L58.5917659,61.677191 L43.8238619,61.677191 C52.4836268,46.8873905 68.5618251,36.8985189 86.9773719,36.8985189 Z" id="形状结合" transform="translate(86.712061, 86.562887) rotate(-16.000000) translate(-86.712061, -86.562887) "></path>
        </g>
    </g>
</svg>