<?xml version="1.0" encoding="UTF-8"?>
<svg width="176px" height="176px" viewBox="0 0 176 176" version="1.1" xmlns="http://www.w3.org/2000/svg" xmlns:xlink="http://www.w3.org/1999/xlink">
    <title>WT_MAICHU</title>
    <g id="页面-1" stroke="none" stroke-width="1" fill="none" fill-rule="evenodd">
        <g id="WT_MAICHU" fill="#558F6F" fill-rule="nonzero">
            <path d="M81.4034487,18.1903275 C82.0241144,17.3844573 83.1817053,17.3036254 83.9033524,18.0311131 C85.8515532,19.9784286 87.6396616,22.0261718 89.2602889,24.122904 C89.8169177,24.1400502 90.3710835,24.1571964 90.9252493,24.1988371 C91.4794152,24.2331294 92.033581,24.2674218 92.5852839,24.3237592 C94.457133,22.4425789 96.4866115,20.6373316 98.6687934,18.9496581 C99.4766441,18.3128002 100.609605,18.533251 101.12929,19.4077059 C102.535639,21.7836759 103.762193,24.1988371 104.811414,26.6262456 C105.343413,26.7830106 105.872949,26.9446745 106.39756,27.1136868 C106.927096,27.2851486 107.454169,27.4615092 107.976317,27.6476677 C110.257017,26.2980188 112.678106,25.0585953 115.217417,23.9612401 C116.153341,23.5546308 117.207488,24.0322742 117.483339,25.0267524 C118.24932,27.6697128 118.830578,30.3102237 119.232041,32.9262401 L119.232041,32.9262401 L120.645779,33.7933466 L122.037351,34.697195 C124.59144,33.9550106 127.239121,33.3622428 129.973006,32.9213412 C130.990208,32.7572278 131.879337,33.4896144 131.901503,34.5110365 C131.980318,37.2617729 131.884263,39.9659696 131.625652,42.5966827 L131.625652,42.5966827 L132.78078,43.7871171 L133.903889,45.006945 C136.558959,44.9138657 139.282992,44.9848999 142.036581,45.2371936 C143.056246,45.3327223 143.743412,46.2512674 143.50943,47.2530939 C142.90108,49.9327961 142.137562,52.5292168 141.226267,55.0203111 L141.226267,55.0203111 L142.048896,56.4556909 L142.83458,57.9155652 C145.428076,58.4813889 148.041276,59.2260228 150.654475,60.1445679 C151.619955,60.4874914 152.050973,61.5603521 151.575622,62.4666499 C150.312124,64.9185529 148.918089,67.2406348 147.418147,69.4206485 L147.418147,69.4206485 L147.851628,71.0176922 L148.243238,72.6245337 C150.619994,73.8174176 152.954879,75.1915611 155.245432,76.7322673 C156.102541,77.3054395 156.240467,78.4444354 155.563153,79.2062154 C153.715934,81.2686553 151.7899,83.1620829 149.789977,84.9060938 L149.789977,84.9060938 L149.814606,86.5619244 L149.789977,88.2153056 C151.7899,89.9544176 153.715934,91.857643 155.563153,93.9225323 C156.240467,94.6794135 156.102541,95.8208588 155.245432,96.3891321 C152.954879,97.9347372 150.619994,99.3039818 148.243238,100.501765 L148.243238,100.501765 L147.851628,102.108606 L147.418147,103.70565 C148.920552,105.885664 150.312124,108.207745 151.575622,110.659648 C152.050973,111.568396 151.619955,112.636357 150.654475,112.971933 C148.043739,113.902725 145.428076,114.644909 142.83458,115.208284 L142.83458,115.208284 L142.048896,116.670607 L141.226267,118.105987 C142.142488,120.592183 142.906005,123.191053 143.50943,125.873204 C143.743412,126.875031 143.056246,127.798475 142.036581,127.889105 C139.282992,128.138949 136.558959,128.209983 133.903889,128.119353 L133.903889,128.119353 L132.78078,129.336732 L131.625652,130.532065 C131.884263,133.157879 131.982781,135.862076 131.901503,138.615262 C131.879337,139.636684 130.990208,140.37152 129.973006,140.204957 C127.239121,139.761606 124.59144,139.171288 122.037351,138.426654 L122.037351,138.426654 L120.645779,139.330502 L119.232041,140.197609 C118.830578,142.818524 118.24932,145.459035 117.483339,148.104445 C117.207488,149.089125 116.153341,149.571667 115.217417,149.165058 C112.678106,148.070152 110.257017,146.82828 107.976317,145.476181 C107.454169,145.664789 106.927096,145.843599 106.39756,146.010162 C105.872949,146.184073 105.343413,146.345737 104.811414,146.492704 C103.762193,148.925012 102.535639,151.345072 101.12929,153.713693 C100.609605,154.588148 99.4766441,154.811049 98.6687934,154.17909 C96.4866115,152.486517 94.457133,150.686169 92.5852839,148.80009 C92.033581,148.856427 91.4794152,148.895618 90.9252493,148.927461 C90.3710835,148.966652 89.8169177,148.986248 89.2602889,149.008293 C87.6396616,151.100127 85.8515532,153.14542 83.9033524,155.090286 C83.1817053,155.822673 82.0241144,155.741841 81.4034487,154.93842 C79.7089327,152.765755 78.1843608,150.517157 76.8371221,148.239165 L76.8371221,148.239165 L75.1967912,147.950129 C74.6549402,147.852151 74.1057002,147.744375 73.5687751,147.621902 C71.4777227,149.255688 69.2339667,150.796394 66.854748,152.192583 C65.9730086,152.714316 64.8720658,152.364045 64.4706034,151.418555 C63.3721236,148.898068 62.4657546,146.345737 61.7367186,143.803204 L61.7367186,143.803204 L60.2219986,143.114908 L58.7269823,142.38987 C56.2911156,143.448034 53.7345638,144.373927 51.0721048,145.145505 C50.091847,145.427192 49.1140521,144.824627 48.9613487,143.808103 C48.5401826,141.08676 48.2963497,138.39726 48.2199979,135.7543 L48.2199979,135.7543 L46.9244813,134.715732 L45.6585202,133.637972 C43.0305427,134.066627 40.3311393,134.326269 37.562773,134.419348 C36.533256,134.465887 35.747572,133.615927 35.8485533,132.604303 C36.11209,129.868263 36.5504967,127.195909 37.136681,124.616635 C36.7967927,124.183081 36.4642931,123.74218 36.1416455,123.29393 L36.1416455,123.29393 L35.1810913,121.944281 C32.5358731,121.704234 29.8438585,121.297625 27.1370662,120.707307 C26.1420307,120.481957 25.5730871,119.480131 25.9302162,118.519945 C26.8759925,115.930873 27.9523058,113.456924 29.1739336,111.10055 L29.1739336,111.10055 L28.5409531,109.569642 L27.9473799,108.031385 C25.4425502,107.139784 22.9475724,106.069373 20.4796872,104.829949 C19.5585404,104.369452 19.2753001,103.252501 19.8565585,102.412338 C21.4230006,100.144144 23.097813,98.0131198 24.8588289,96.0364107 L24.8588289,96.0364107 L24.6346996,94.3977263 L24.4499776,92.754143 C22.2431661,91.274673 20.1003915,89.6212919 18.0191909,87.8086963 C17.2359698,87.137546 17.2359698,85.9887523 18.0191909,85.3200515 C20.1003915,83.5050064 22.2382402,81.8491758 24.4499776,80.3721553 L24.4499776,80.3721553 L24.6346996,78.728572 L24.8588289,77.092337 C23.097813,75.115628 21.4230006,72.9846034 19.8565585,70.71396 C19.2753001,69.866449 19.5585404,68.7568466 20.4796872,68.2987988 C22.9475724,67.0544764 25.4425502,65.9865146 27.9473799,65.0998124 L27.9473799,65.0998124 L28.5409531,63.5517578 L29.1714706,62.0257482 C27.9523058,59.6693739 26.8759925,57.1954258 25.9302162,54.603904 C25.5730871,53.6437182 26.1420307,52.6443411 27.1370662,52.4189914 C29.8438585,51.8286731 32.5334101,51.4196144 35.1810913,51.1844668 L35.1810913,51.1844668 L36.1416455,49.8323685 C36.4642931,49.3865679 36.7967927,48.9407674 37.136681,48.5072141 C36.5504967,45.930389 36.11209,43.2580351 35.8485533,40.5195461 C35.747572,39.5103712 36.533256,38.6579614 37.562773,38.7069504 C40.3311393,38.8000297 43.0305427,39.0572223 45.6585202,39.4809778 L45.6585202,39.4809778 L46.9244813,38.413016 L48.2199979,37.3719983 C48.2938867,34.7290379 48.5401826,32.0419873 48.9613487,29.3206445 C49.1140521,28.3041212 50.091847,27.6991062 51.0721048,27.9807934 C53.7345638,28.7499218 56.2886526,29.6758152 58.7245194,30.7339792 L58.7245194,30.7339792 L60.2219986,30.0113904 L61.7367186,29.3230939 C62.4657546,26.7805611 63.3721236,24.2282305 64.4681405,21.7028439 C64.8720658,20.7622538 65.9730086,20.4046335 66.854748,20.9312661 C69.2315038,22.3323535 71.4777227,23.8755092 73.5687751,25.5043958 C74.1057002,25.3794737 74.6549402,25.2741472 75.1967912,25.1737196 L75.1967912,25.1737196 L76.8371221,24.8846841 C78.1843608,22.6066923 79.7040067,20.3605434 81.4034487,18.1903275 Z M89.6839179,26.996113 C85.3663502,26.8075051 81.0340048,27.076945 76.782937,27.7946349 L76.782937,27.7946349 L76.723826,27.7946349 L75.7337163,27.9783439 L74.7485326,28.1669518 L74.6918846,28.1889969 C70.4654464,29.0634518 66.3449155,30.398404 62.4091065,32.1546622 L62.4091065,32.1546622 L62.3549214,32.16446 L61.4411635,32.5882155 L60.5397204,33.0193193 L60.4855353,33.0536117 C56.6211521,34.9568371 52.9562687,37.2617729 49.5869403,39.9512729 L49.5869403,39.9512729 L49.5376811,39.9733179 L48.7544601,40.6052769 L47.9835538,41.2568316 L47.9490724,41.2960229 C44.6684106,44.0908493 41.7054706,47.2506444 39.1021226,50.6676321 L39.1021226,50.6676321 L39.0553263,50.7068234 L38.4592902,51.5126936 L37.8731059,52.3259122 L37.8484763,52.3798002 C35.3756651,55.894766 33.2698349,59.6669245 31.6196522,63.6276908 L31.6196522,63.6276908 L31.5851708,63.6815788 L31.2034121,64.6074723 L30.8487459,65.5407141 L30.8364311,65.5970515 C29.3118593,69.6043575 28.242935,73.7855747 27.6321211,78.0329272 L27.6321211,78.0329272 L27.6173433,78.0917141 L27.4794176,79.0788438 L27.3636585,80.073322 L27.3685844,80.1321089 C26.905548,84.3966075 26.905548,88.7296908 27.3685844,92.99174 L27.3685844,92.99174 L27.3636585,93.0480774 L27.4794176,94.0499039 L27.6173433,95.0394832 L27.6321211,95.0933711 C28.242935,99.3407236 29.3118593,103.521941 30.8364311,107.526797 L30.8364311,107.526797 L30.8487459,107.585584 L31.2034121,108.518826 L31.5851708,109.447169 L31.6196522,109.498607 C33.2698349,113.456924 35.3756651,117.229083 37.8484763,120.746498 L37.8484763,120.746498 L37.8731059,120.800386 L38.4592902,121.608706 L39.0553263,122.424374 L39.1021226,122.458666 C41.7054706,125.880553 44.6684106,129.040348 47.9490724,131.827826 L47.9490724,131.827826 L47.9860168,131.874366 L48.7544601,132.518572 L49.5376811,133.150531 L49.5894033,133.177475 C52.9587316,135.862076 56.6236151,138.169461 60.4904612,140.072687 L60.4904612,140.072687 L60.5397204,140.10208 L61.4411635,140.535633 L62.3573843,140.959389 L62.4140324,140.976535 C66.3449155,142.732793 70.4679093,144.062846 74.6918846,144.939751 L74.6918846,144.939751 L74.7485326,144.956897 L75.7337163,145.150404 L76.723826,145.329214 L76.782937,145.329214 C81.0340048,146.049353 85.3663502,146.313894 89.6839179,146.125286 L89.6839179,146.125286 L89.7430289,146.132635 L90.7454533,146.078747 L91.7552666,146.010162 L91.8094517,145.997915 C96.1122416,145.657441 100.373161,144.85402 104.496155,143.602349 L104.496155,143.602349 L104.55034,143.5999 L105.51582,143.293718 L106.468985,142.975289 L106.520708,142.953244 C110.594442,141.552157 114.517936,139.715066 118.197598,137.481165 L118.197598,137.481165 L118.254246,137.45667 L119.10643,136.922689 L119.953688,136.38136 L119.995558,136.339719 C123.598867,133.978446 126.93864,131.222811 129.948377,128.141398 L129.948377,128.141398 L129.99271,128.109556 L130.689727,127.382068 L131.37443,126.652131 L131.408911,126.600692 C134.300426,123.416403 136.85944,119.925931 139.01453,116.21256 L139.01453,116.21256 L139.049011,116.16847 L139.53914,115.294015 L140.014491,114.412211 L140.031732,114.355874 C142.048896,110.56412 143.652282,106.556814 144.787706,102.422136 L144.787706,102.422136 L144.812336,102.368248 L145.07341,101.398265 L145.31478,100.428281 L145.31478,100.369494 C146.319667,96.1980747 146.84674,91.9139804 146.923092,87.6200884 L146.923092,87.6200884 L146.928018,87.5637509 L146.942796,86.5619244 L146.928018,85.5625474 L146.923092,85.4988616 C146.84674,81.207419 146.317204,76.9257742 145.31478,72.7543548 L145.31478,72.7543548 L145.31478,72.6980173 L145.07341,71.7231348 L144.812336,70.7580501 L144.787706,70.7017127 C143.652282,66.5694846 142.048896,62.5597291 140.031732,58.7655256 L140.031732,58.7655256 L140.014491,58.7116376 L139.53914,57.8298343 L139.049011,56.9602783 L139.009604,56.9112892 C136.85944,53.1979176 134.300426,49.7074463 131.408911,46.5231567 L131.408911,46.5231567 L131.37443,46.4717182 L130.689727,45.741781 L129.99271,45.0142933 L129.948377,44.9824504 C126.93864,41.9010379 123.598867,39.1454026 119.993095,36.7890283 L119.993095,36.7890283 L119.953688,36.7449382 L119.10643,36.19871 L118.254246,35.6720775 L118.197598,35.6500324 C114.517936,33.4087824 110.594442,31.5790406 106.520708,30.1755037 L106.520708,30.1755037 L106.468985,30.1510092 L105.51582,29.8325802 L104.55034,29.5263986 L104.496155,29.5214996 C100.373161,28.2747278 96.1122416,27.4664081 91.8094517,27.1259341 L91.8094517,27.1259341 L91.7552666,27.1112374 L90.7454533,27.0475516 L89.7430289,26.9936636 Z M41.8904388,112.116339 C50.8482218,127.682616 67.6850116,138.220165 86.9773719,138.220165 C106.269732,138.220165 123.106522,127.682616 132.064305,112.116339 L132.064305,112.116339 L135.761207,112.116339 C126.522646,129.527054 108.156359,141.416702 86.9773719,141.416702 C65.8033107,141.416702 47.4345602,129.527054 38.1935369,112.116339 L38.1935369,112.116339 Z M59.2050427,112.116339 C66.1234954,119.552879 75.9876474,124.231336 86.9773719,124.231336 C97.9670963,124.231336 107.833711,119.552879 114.752164,112.116339 L114.752164,112.116339 L129.719568,112.116339 C120.971136,126.533822 105.114604,136.22631 86.9773719,136.22631 C68.8450655,136.22631 52.9860705,126.533822 44.2351761,112.116339 L44.2351761,112.116339 Z M76.199059,84.4191758 L76.1761733,84.8717273 C76.0347692,87.5490559 75.8197415,89.5427366 75.5310902,90.8527695 C75.5217152,90.9090195 75.5104652,90.9765195 75.4973402,91.0552695 L75.4523402,91.3252695 L75.4523402,91.3252695 L75.4256215,91.485582 C75.355309,91.9308945 75.3025746,92.2531601 75.2674183,92.4523789 L75.2674183,92.4523789 L86.3416371,92.4523789 L86.3416371,96.1437851 L74.2127309,96.1789414 L74.7496959,96.3645269 C79.536287,98.0209679 83.078325,99.304043 85.3758096,100.213752 L85.8658753,100.409764 L85.8658753,100.409764 L86.0955433,100.50316 L83.8455433,104.229723 L83.234032,103.962877 C78.5855539,101.937649 74.851891,100.385973 72.0330433,99.3078476 C70.7556996,100.491441 68.8924183,101.487535 66.4431996,102.296129 C64.1111683,103.057848 60.8299183,103.78441 56.5994496,104.475816 L56.5994496,104.475816 L56.3382191,103.953355 C56.3151071,103.907132 56.2908558,103.858629 56.2654652,103.807848 C55.4803089,102.307848 54.8416371,101.135973 54.3494496,100.292223 C58.5916371,99.7883164 61.7849964,99.2375351 63.9295277,98.6398789 C66.1795277,98.0070664 67.8260121,97.1750351 68.8689809,96.1437851 L68.8689809,96.1437851 L54.4549183,96.1437851 L54.4549183,92.4523789 L66.1619496,92.4523789 L65.8927845,92.3794114 C63.7870716,91.8108689 60.7127308,91.0324571 56.6697621,90.0441758 L56.6697621,90.0441758 L57.9353871,87.407457 L58.2359431,87.4751776 C60.4807151,87.9864164 63.6207641,88.8193116 67.6560902,89.9738632 L67.6560902,89.9738632 L66.3025746,92.4523789 L70.714684,92.4523789 L70.7238246,92.3883945 C70.7388245,92.2927695 70.7650746,92.1558945 70.8025746,91.9777695 C70.8728871,91.6379258 70.9256215,91.3801132 70.9607777,91.204332 C71.136559,90.5129258 71.2947621,89.5051132 71.4353871,88.1808945 C71.5642933,86.9152695 71.6346059,85.6613632 71.6463246,84.4191758 L71.6463246,84.4191758 L76.199059,84.4191758 Z M108.665856,70.7961289 L108.665856,82.3098008 L115.134606,82.3098008 L115.134606,73.8547226 L119.68734,73.8547226 L119.68734,86.7746445 L108.665856,86.7746445 L108.665856,98.1828476 L116.347496,98.1828476 L116.347496,89.798082 L120.935387,89.798082 L120.935387,104.089098 L116.347496,104.089098 L116.347496,102.612535 L91.5799183,102.612535 L91.5799183,89.798082 L96.2029652,89.798082 L96.2029652,98.1828476 L103.884606,98.1828476 L103.884606,86.7746445 L92.8631215,86.7746445 L92.8631215,73.8547226 L97.4158559,73.8547226 L97.4158559,82.3098008 L103.884606,82.3098008 L103.884606,70.7961289 L108.665856,70.7961289 Z M40.0434656,83.7350101 C41.6123707,83.7350101 42.8857207,84.9989281 42.8857207,86.55923 C42.8857207,88.1268803 41.6123707,89.3858994 40.0434656,89.3858994 C38.4745605,89.3858994 37.2012106,88.1268803 37.2012106,86.55923 C37.2012106,84.9989281 38.4745605,83.7350101 40.0434656,83.7350101 Z M133.913987,83.7350101 C135.480429,83.7350101 136.753779,84.9989281 136.753779,86.55923 C136.753779,88.1268803 135.480429,89.3858994 133.913987,89.3858994 C132.342619,89.3858994 131.069269,88.1268803 131.069269,86.55923 C131.069269,84.9989281 132.342619,83.7350101 133.913987,83.7350101 Z M72.4724965,70.7258164 L72.4724965,73.6086289 L83.8103871,73.6086289 L83.8103871,77.2121445 L72.4724965,77.2121445 L72.4724965,79.673082 L85.4451527,79.673082 L85.4451527,83.2590195 L83.8103871,88.954332 C82.3572621,88.579332 80.9685902,88.3098008 79.6443715,88.1457382 L79.6443715,88.1457382 L81.0330433,83.3644882 L54.9119496,83.3644882 L54.9119496,79.673082 L68.0076527,79.673082 L68.0076527,77.2121445 L56.7752308,77.2121445 L56.7752308,73.6086289 L68.0076527,73.6086289 L68.0076527,70.7258164 L72.4724965,70.7258164 Z M59.7283558,83.5051132 L60.5305575,83.6692726 C63.22587,84.2309979 66.1342507,84.9379968 69.2556996,85.7902695 L69.2556996,85.7902695 L68.0076527,88.532457 C66.5310902,88.063707 63.7537465,87.3019882 59.6756214,86.2473008 C59.1717152,86.1183945 58.8084339,86.0246445 58.5857777,85.9660508 L58.5857777,85.9660508 L59.7283558,83.5051132 Z M86.9773719,31.7113111 C108.424821,31.7113111 126.961053,43.9071403 136.083854,61.6779258 L136.083854,61.6779258 L132.475619,61.6779258 C123.62128,45.7368821 106.555435,34.9004996 86.9773719,34.9004996 C67.4017713,34.9004996 50.3359263,45.7368821 41.4815876,61.6779258 L41.4815876,61.6779258 L37.8708892,61.6779258 C46.9936905,43.9071403 65.5323852,31.7113111 86.9773719,31.7113111 Z M86.9773719,36.8985189 C105.395382,36.8985189 121.47358,46.8873905 130.130882,61.677191 L130.130882,61.677191 L115.362978,61.677191 C108.424821,53.8560858 98.2971328,48.888594 86.9773719,48.888594 C75.6600739,48.888594 65.5299222,53.8560858 58.5917659,61.677191 L58.5917659,61.677191 L43.8238619,61.677191 C52.4836268,46.8873905 68.5618251,36.8985189 86.9773719,36.8985189 Z" id="形状结合" transform="translate(86.712061, 86.562887) rotate(-16.000000) translate(-86.712061, -86.562887) "></path>
        </g>
    </g>
</svg>