<svg width="16" height="16" viewBox="0 0 16 16" fill="none" xmlns="http://www.w3.org/2000/svg">
<path d="M12.5 7.49625V13.4963H3.5V7.49625H12.5ZM13.12 5.99625H2.88C2.39391 5.99625 2 6.39016 2 6.87625V14.1163C2 14.6023 2.39391 14.9963 2.88 14.9963H13.12C13.6061 14.9963 14 14.6023 14 14.1163V6.87625C14 6.39016 13.6061 5.99625 13.12 5.99625ZM11.7503 5.99609H10.2503V4.99609C10.2503 3.75531 9.24063 2.74609 8.00031 2.74609C6.76 2.74609 5.75031 3.75531 5.75031 4.99609V5.99609H4.25031V4.99609C4.25031 2.92828 5.93297 1.24609 8.00031 1.24609C10.0677 1.24609 11.7503 2.92828 11.7503 4.99609V5.99609Z" fill="#566D8F"/>
<path d="M8 12.2461C7.58594 12.2461 7.25 11.9102 7.25 11.4961V9.49609C7.25 9.08203 7.58594 8.74609 8 8.74609C8.41406 8.74609 8.75 9.08203 8.75 9.49609V11.4961C8.75 11.9102 8.41406 12.2461 8 12.2461Z" fill="#566D8F"/>
</svg>
