<svg width="16" height="16" viewBox="0 0 16 16" fill="none" xmlns="http://www.w3.org/2000/svg">
<path fill-rule="evenodd" clip-rule="evenodd" d="M1 8C1 4.13404 4.13404 1 8 1C11.866 1 15 4.13404 15 8C15 11.866 11.866 15 8 15C4.13404 15 1 11.866 1 8ZM9.38597 7.98006C10.3095 7.22921 10.7712 6.39204 10.7712 5.46853C10.7712 5.09511 10.703 4.76185 10.5665 4.46874C10.434 4.17161 10.2392 3.92066 9.98224 3.71588C9.72928 3.50709 9.41809 3.34848 9.04869 3.24007C8.68331 3.12765 8.26572 3.07143 7.79594 3.07143C6.94872 3.07143 6.18382 3.2742 5.50123 3.67974V5.67331C6.15973 5.09511 6.85236 4.80602 7.57912 4.80602C7.73973 4.80602 7.88829 4.83011 8.02481 4.87829C8.16534 4.92647 8.28178 4.99272 8.37413 5.07704C8.4705 5.16137 8.54478 5.26175 8.59698 5.37819C8.64918 5.49463 8.67528 5.6191 8.67528 5.75161C8.67528 5.89615 8.66122 6.02866 8.63312 6.14911C8.60501 6.26556 8.5508 6.382 8.4705 6.49844C8.39421 6.61488 8.28981 6.73935 8.15731 6.87186C8.02481 7.00436 7.85617 7.15694 7.65139 7.32959C7.49078 7.4621 7.35627 7.60263 7.24786 7.75119C7.14346 7.89976 7.06115 8.05635 7.00092 8.22098C6.94069 8.3856 6.89653 8.56026 6.86842 8.74497C6.84031 8.92565 6.82626 9.1224 6.82626 9.33521V9.89533H8.28379V9.52794C8.28379 9.37937 8.30186 9.24486 8.338 9.1244C8.37815 9.00395 8.44038 8.88751 8.5247 8.77508C8.61304 8.66265 8.72547 8.5442 8.86198 8.41973C9.00252 8.29526 9.17718 8.1487 9.38597 7.98006ZM8.72346 12.2322C8.78369 12.0957 8.8138 11.9451 8.8138 11.7805C8.8138 11.6279 8.78369 11.4854 8.72346 11.3529C8.66725 11.2204 8.58493 11.1059 8.47652 11.0096C8.36811 10.9092 8.23962 10.8329 8.09106 10.7807C7.94249 10.7245 7.77988 10.6964 7.60321 10.6964C7.43055 10.6964 7.26793 10.7225 7.11536 10.7747C6.96679 10.8269 6.8363 10.9011 6.72387 10.9975C6.61546 11.0899 6.52913 11.2043 6.46489 11.3408C6.40064 11.4773 6.36852 11.6239 6.36852 11.7805C6.36852 11.9331 6.39864 12.0756 6.45886 12.2081C6.52311 12.3406 6.60944 12.455 6.71785 12.5514C6.83027 12.6518 6.96077 12.7321 7.10933 12.7923C7.26191 12.8526 7.42654 12.8827 7.60321 12.8827C7.77586 12.8827 7.93647 12.8546 8.08504 12.7983C8.2336 12.7462 8.36209 12.6719 8.4705 12.5755C8.57891 12.4791 8.66323 12.3647 8.72346 12.2322Z" fill="black"/>
</svg>
