<?xml version="1.0" encoding="UTF-8"?>
<svg width="12px" height="12px" viewBox="0 0 12 12" version="1.1" xmlns="http://www.w3.org/2000/svg" xmlns:xlink="http://www.w3.org/1999/xlink">
    <!-- Generator: Sketch 59 (86127) - https://sketch.com -->
    <title>删除-1</title>
    <desc>Created with Sketch.</desc>
    <g id="-----" stroke="none" stroke-width="1" fill="none" fill-rule="evenodd">
        <g id="新建产品" transform="translate(-638.000000, -468.000000)" fill="#7A8A99" fill-rule="nonzero">
            <g id="删除-1" transform="translate(634.000000, 464.000000)">
                <g id="删除-1_export" transform="translate(4.000000, 4.000000)">
                    <g id="Shape">
                        <path d="M10,2 L9,2 L9,1 C9,0.448 8.553,0 8,0 L4,0 C3.448,0 3,0.448 3,1 L3,2 L2,2 L0,2 L0,3 L1,3 L1,11 C1,11.553 1.448,12 2,12 L10,12 C10.553,12 11,11.553 11,11 L11,3 L12,3 L12,2 L10,2 Z M4,11 L2,11 L2,3 L4,3 L4,11 Z M4,1 L8,1 L8,2 L4,2 L4,1 Z M7,11 L5,11 L5,3 L7,3 L7,11 Z M10,11 L8,11 L8,3 L10,3 L10,11 Z"></path>
                    </g>
                </g>
            </g>
        </g>
    </g>
</svg>