<?xml version="1.0" encoding="UTF-8"?>
<svg width="16px" height="16px" viewBox="0 0 16 16" version="1.1" xmlns="http://www.w3.org/2000/svg" xmlns:xlink="http://www.w3.org/1999/xlink">
    <title>setting</title>
    <g id="页面-1" stroke="none" stroke-width="1" fill="none" fill-rule="evenodd">
        <g id="setting">
            <rect id="矩形" fill="#EBEEF5" opacity="0" x="0" y="0" width="16" height="16"></rect>
            <path d="M6.27077949,7.99849962 C6.27077949,7.50637659 6.4378491,7.09727432 6.77498958,6.76219055 C7.11413089,6.42210553 7.52230096,6.25506377 8.01450604,6.25506377 C8.50571071,6.25506377 8.91388078,6.42110528 9.25302209,6.76219055 C9.59116298,7.09727432 9.75723218,7.50737684 9.75723218,7.99849962 C9.75723218,8.48962241 9.59116298,8.90172543 9.25302209,9.24381095 C8.91288037,9.58089522 8.5047103,9.74793698 8.01450604,9.74793698 C7.52030013,9.74793698 7.11313047,9.58189547 6.77498958,9.24381095 C6.43484785,8.89872468 6.27077949,8.48162041 6.27077949,7.99849962 Z M3.80675281,9.13378345 C3.90979575,9.49987497 4.06185911,9.85596399 4.24693622,10.1900475 L3.09745727,11.5983996 L4.4,12.9007252 L5.81058774,11.7524381 C6.14272614,11.9384846 6.50687787,12.0935234 6.87002918,12.1975494 L7.06210921,14 L8.93989162,14 L9.12796999,12.1975494 C9.49212172,12.0935234 9.83826594,11.9374844 10.1894123,11.7524381 L11.5929971,12.9007252 L12.9085452,11.5993998 L11.7500625,10.1900475 C11.9321384,9.85896474 12.0902043,9.50087522 12.1962484,9.1327832 L14,8.93773443 L14,7.06126532 L12.1972489,6.8692173 C12.0912047,6.50412603 11.9281367,6.16604151 11.7520634,5.81595399 L12.9085452,4.40660165 L11.5949979,3.09027257 L10.1904127,4.24656164 C9.83226344,4.06651663 9.49512297,3.90747687 9.1289704,3.80045011 L8.9388912,2 L7.06310963,2 L6.8710296,3.80045011 C6.49387245,3.90647662 6.14172572,4.06751688 5.81058774,4.24556139 L4.4,3.08927232 L3.09645686,4.40460115 L4.24693622,5.81495374 C4.06786161,6.16604151 3.91579825,6.50412603 3.80675281,6.8692173 L2,7.06126532 L2,8.93773443 L3.80675281,9.13378345 Z" id="Shape" fill="#566D8F" fill-rule="nonzero"></path>
        </g>
    </g>
</svg>