<?xml version="1.0" encoding="UTF-8"?>
<svg width="16px" height="16px" viewBox="0 0 16 16" version="1.1" xmlns="http://www.w3.org/2000/svg" xmlns:xlink="http://www.w3.org/1999/xlink">
    <title>编组 72</title>
    <g id="页面-1" stroke="none" stroke-width="1" fill="none" fill-rule="evenodd">
        <g id="6.实盘任务页面" transform="translate(-240, -48)">
            <g id="编组-27" transform="translate(0, 36)">
                <g id="编组-72" transform="translate(240, 12)">
                    <rect id="矩形" fill="#EBEEF5" opacity="0" x="0" y="0" width="16" height="16"></rect>
                    <path d="M15,4 L15,16 L5,16 C3.34314575,16 2,14.6568542 2,13 L2,3.5 C2,2.11928813 3.11928813,1 4.5,1 L15,1 L15,3 L4.5,3 C4.25454011,3 4.05039163,3.17687516 4.00805567,3.41012437 L4,3.5 C4,3.74545989 4.17687516,3.94960837 4.41012437,3.99194433 L4.5,4 L15,4 Z M4.00057405,5.9501074 L4,13 C4,13.5522847 4.44771525,14 5,14 L13,14 L13,6 L11,6 L11,10 L9,9 L7,10 L7,6 L4.5,6 C4.32896988,6 4.16195106,5.98282562 4.00057405,5.9501074 Z" id="形状结合" fill="#566D8F" fill-rule="nonzero"></path>
                </g>
            </g>
        </g>
    </g>
</svg>