<?xml version="1.0" standalone="no"?><!DOCTYPE svg PUBLIC "-//W3C//DTD SVG 1.1//EN" "http://www.w3.org/Graphics/SVG/1.1/DTD/svg11.dtd"><svg t="1706669934606" class="icon" viewBox="0 0 1024 1024" version="1.1" xmlns="http://www.w3.org/2000/svg" p-id="2381" xmlns:xlink="http://www.w3.org/1999/xlink" width="200" height="200"><path d="M64 512C64 264.58 264.58 64 512 64s448 200.58 448 448-200.58 448-448 448S64 759.42 64 512z m194.201 25.426l184.482 184.482c6.251 6.251 16.377 6.251 22.627 0l322.48-322.48c6.251-6.251 6.251-16.376 0-22.627l-39.597-39.598c-6.251-6.25-16.377-6.25-22.627 0L453.997 608.772 320.426 475.201c-6.251-6.251-16.377-6.251-22.628 0l-39.597 39.598c-6.251 6.25-6.251 16.376 0 22.627z" p-id="2382"></path></svg>