<?xml version="1.0" encoding="UTF-8"?>
<svg width="16px" height="16px" viewBox="0 0 16 16" version="1.1" xmlns="http://www.w3.org/2000/svg" xmlns:xlink="http://www.w3.org/1999/xlink">
    <!-- Generator: Sketch 52.3 (67297) - http://www.bohemiancoding.com/sketch -->
    <title>对勾小</title>
    <desc>Created with Sketch.</desc>
    <g id="-" stroke="none" stroke-width="1" fill="none" fill-rule="evenodd">
        <g id="篮子管理" transform="translate(-1069.000000, -378.000000)">
            <g id="Group-21" transform="translate(889.000000, 374.000000)">
                <g id="Group-15" transform="translate(59.000000, 0.000000)">
                    <g id="对勾小_export" transform="translate(121.000000, 4.000000)">
                        <g id="对勾小">
                            <g transform="translate(1.000000, 1.000000)">
                                <rect id="Rectangle" fill="#000000" opacity="0" x="0" y="0" width="14" height="14"></rect>
                                <path d="M7,14 C3.13425,14 0,10.86575 0,7 C0,3.13425 3.13425,0 7,0 C10.86575,0 14,3.13425 14,7 C14,10.86575 10.86575,14 7,14 Z M5.439,9.74866666 C5.5757508,9.88545353 5.76124633,9.96230262 5.95466667,9.96230262 C6.14808701,9.96230262 6.33358254,9.88545353 6.47033334,9.74866666 L10.8908333,5.32816666 C11.0750633,5.14393671 11.1470133,4.87541569 11.0795804,4.6237529 C11.0121476,4.3720901 10.8155766,4.17551908 10.5639138,4.10808623 C10.312251,4.04065339 10.04373,4.11260338 9.8595,4.29683334 L5.92316666,8.17016666 L4.1615,6.4085 C3.97727004,6.22427004 3.70874903,6.15232005 3.45708623,6.2197529 C3.20542343,6.28718574 3.00885241,6.48375677 2.94141956,6.73541957 C2.87398672,6.98708237 2.94593671,7.25560338 3.13016666,7.43983334 L5.439,9.74866666 Z" id="Shape" fill="#009900" fill-rule="nonzero"></path>
                            </g>
                        </g>
                    </g>
                </g>
            </g>
        </g>
    </g>
</svg>