<?xml version="1.0" encoding="UTF-8"?>
<svg width="24px" height="24px" viewBox="0 0 24 24" version="1.1" xmlns="http://www.w3.org/2000/svg" xmlns:xlink="http://www.w3.org/1999/xlink">
    <title>top_normal</title>
    <g id="页面-1" stroke="none" stroke-width="1" fill="none" fill-rule="evenodd">
        <g id="top_normal" fill-rule="nonzero">
            <rect id="矩形" fill="#D3DBEA" opacity="0" x="0" y="0" width="24" height="24" rx="2"></rect>
            <path d="M18.0147718,11.6729946 L12.5257544,6.1493463 C12.326626,5.9502179 12.0062891,5.9502179 11.8071607,6.1493463 C11.6080323,6.34847469 11.6080323,6.67746941 11.8071607,6.8765978 L12.3612571,7.43935194 C12.3525993,7.44800969 12.3525993,7.44800969 12.3439416,7.4480097 L7.69472657,12.1318557 L6.51727174,10.9544009 C6.31814335,10.7552725 5.98914863,10.7552725 5.798678,10.9544009 C5.5995496,11.1535293 5.5995496,11.482524 5.798678,11.6816524 L8.58647544,14.4867654 L5.1493463,17.94121 C4.9502179,18.1403384 4.9502179,18.4693331 5.1493463,18.6684615 C5.34847469,18.8675899 5.66881166,18.8675899 5.86794004,18.6684615 L9.29641143,15.2140169 L12.5170967,18.4520176 C12.7162251,18.651146 13.036562,18.651146 13.2356904,18.4520176 C13.4348188,18.2528892 13.4348188,17.9238945 13.2356904,17.7247661 L12.0582356,16.5386536 L16.7074506,11.8548075 C16.7161084,11.8461498 16.7161084,11.8461498 16.7161084,11.837492 L17.2875203,12.4002461 C17.4866487,12.5993745 17.8069856,12.5993745 18.006114,12.4002461 C18.2052424,12.2011178 18.2052424,11.872123 18.0147718,11.6729946 Z" id="路径" fill="#D3DBEA"></path>
        </g>
    </g>
</svg>