<?xml version="1.0" encoding="UTF-8"?>
<svg width="24px" height="24px" viewBox="0 0 24 24" version="1.1" xmlns="http://www.w3.org/2000/svg" xmlns:xlink="http://www.w3.org/1999/xlink">
    <title>yhwnd_default</title>
    <g id="页面-1" stroke="none" stroke-width="1" fill="none" fill-rule="evenodd">
        <g id="yhwnd_default">
            <rect id="矩形" x="0" y="0" width="24" height="24"></rect>
            <path d="M18.5745311,8.88123824 C18.6072382,8.91151981 18.6258311,8.95407219 18.6258311,8.9986449 L18.6258311,17.4350985 C18.6258311,17.6118297 18.4825623,17.7550985 18.3058311,17.7550985 L6.34829219,17.7550985 C6.17156107,17.7550985 6.02829219,17.6118297 6.02829219,17.4350985 L6.02829219,13.4573413 C6.02829219,13.3689757 6.09992663,13.2973413 6.18829219,13.2973413 C6.21762608,13.2973413 6.24639545,13.3054055 6.27145556,13.3206524 L8.817277,14.8695646 L11.1985981,12.4731802 C11.2529654,12.4184691 11.338627,12.4103327 11.4023223,12.4538299 L13.6363582,13.9794413 L18.3484245,8.88994496 C18.4084579,8.82510305 18.5096892,8.82120492 18.5745311,8.88123824 Z M18.4035651,6.1278005 C18.4133197,6.17523096 18.4010694,6.22452738 18.3702472,6.26187437 L13.1069615,12.639369 C13.0538709,12.7036986 12.9602684,12.7164522 12.8919025,12.6686715 L10.6587246,11.1079106 L8.44131272,13.6241485 C8.39107343,13.6811582 8.30766622,13.6949681 8.24173327,13.6571932 L6.10692877,12.4341021 C6.05814551,12.4061528 6.02761153,12.3546498 6.02649928,12.2984383 L6,10.9638832 C5.99834433,10.8755349 6.06854761,10.8024973 6.15689587,10.8007492 C6.18099256,10.8002724 6.20488564,10.8052456 6.22679089,10.8152973 L8.11266159,11.6806744 L10.3350634,9.16298389 C10.3888772,9.10201989 10.4798598,9.09111703 10.5465543,9.13763997 L12.7991651,10.7089566 L15.0394203,7.8989895 L14.3212518,7.04518593 C14.2643705,6.97756198 14.2730792,6.8766306 14.3407031,6.81974937 C14.3610721,6.8026162 14.3853935,6.79083518 14.4114645,6.7854734 L18.2146139,6.00331181 C18.3011679,5.98551097 18.3857643,6.04124646 18.4035651,6.1278005 Z" id="Combined-Shape" fill="#D3DBEA" fill-rule="nonzero"></path>
        </g>
    </g>
</svg>