<?xml version="1.0" encoding="UTF-8"?>
<svg width="16px" height="16px" viewBox="0 0 16 16" version="1.1" xmlns="http://www.w3.org/2000/svg" xmlns:xlink="http://www.w3.org/1999/xlink">
    <title>btn_del</title>
    <g id="规范及控件" stroke="none" stroke-width="1" fill="none" fill-rule="evenodd">
        <g id="编组-35备份">
            <path d="M13.0333333,4.5 L13.0333333,13.5 C13.0333333,14.0522847 12.5856181,14.5 12.0333333,14.5 L4.03333333,14.5 C3.48104858,14.5 3.03333333,14.0522847 3.03333333,13.5 L3.03333333,4.5 L3.03333333,4.5 L1.7,4.5 L1.7,3.5 L5.03333333,3.5 L5.03333333,2.5 C5.03333333,1.94771525 5.48104858,1.5 6.03333333,1.5 L10.0333333,1.5 C10.5856181,1.5 11.0333333,1.94771525 11.0333333,2.5 L11.0333333,3.5 L11.0333333,3.5 L14.3666667,3.5 L14.3666667,4.5 L13.0333333,4.5 Z M10.0333333,2.5 L6.03333333,2.5 L6.03333333,3.5 L10.0333333,3.5 L10.0333333,2.5 Z M12.0333333,4.5 L4.03333333,4.5 L4.03333333,13.5 L12.0333333,13.5 L12.0333333,4.5 Z M7.03333333,11.5 L6.03333333,11.5 L6.03333333,6.5 L7.03333333,6.5 L7.03333333,11.5 Z M10.0333333,11.5 L9.03333333,11.5 L9.03333333,6.5 L10.0333333,6.5 L10.0333333,11.5 Z" id="icon_删除" fill="#566D8F" fill-rule="nonzero"></path>
        </g>
    </g>
</svg>