<svg width="24" height="24" viewBox="0 0 24 24" fill="none" xmlns="http://www.w3.org/2000/svg">
<rect width="24" height="24" rx="2" fill="#E94242"/>
<path fill-rule="evenodd" clip-rule="evenodd" d="M7.70274 4.90334C8.71146 4.8947 10.5293 4.88606 11.4243 4.9305C11.4528 4.85134 11.4771 4.77383 11.5005 4.69945C11.695 4.08011 11.8215 3.67736 13.7088 4.34413C14.0235 4.45332 14.3682 4.57027 14.7181 4.68899C15.7646 5.04403 16.8577 5.4149 17.3352 5.64155C17.7252 5.12554 18.2487 4.81446 19.1914 5.97115C19.8338 6.75998 20.6094 7.59697 21.201 8.23542C21.5565 8.61909 21.8456 8.93107 21.9994 9.11781C20.9523 8.61908 19.7717 7.73027 18.8965 6.95749C18.1628 6.31804 18.0293 6.3884 17.3921 7.00193C17.292 7.10008 17.1856 7.20463 17.0737 7.31468C15.5126 8.84902 12.8649 11.4514 11.0713 12.6459C12.7182 11.2015 14.4208 9.1175 15.8959 7.312C16.2538 6.87391 16.5983 6.45222 16.9254 6.06003L14.0605 5.34898C12.6596 4.99871 12.5879 5.20703 12.3937 5.77163C12.3662 5.85174 12.3361 5.93901 12.2995 6.03288C12.0318 6.72879 11.7436 7.67002 11.4329 8.68518C10.8704 10.5225 10.2338 12.6019 9.50998 13.9075C9.91982 12.6546 10.7673 8.92153 11.3 5.84647C10.6079 5.7933 9.68396 5.83884 8.9932 5.87288C8.75376 5.88469 8.54234 5.89511 8.3783 5.89955C7.36315 5.93189 7.44415 6.28258 7.62328 7.05808C7.64244 7.14104 7.66272 7.22885 7.68291 7.32166C7.79219 7.80837 7.95001 8.41108 8.12464 9.07797C8.6197 10.9686 9.24982 13.3749 9.29184 15.1161C8.99703 13.7557 7.89311 10.6992 6.76937 7.82779C6.67188 7.87154 6.5452 7.92647 6.40049 7.98923C5.83873 8.23286 5.0051 8.59439 4.55096 8.87709C3.66651 9.44617 3.72336 9.64122 4.91321 10.9658C4.99262 11.0546 5.07587 11.1476 5.16243 11.2442C6.4867 12.7225 8.58646 15.0664 9.58666 16.8937C8.84367 16.0135 6.50231 13.7471 4.50337 11.9336C4.14113 12.4311 3.58058 13.7113 3.31352 14.3507C3.05705 14.9815 3.17074 15.2753 3.96133 15.6839C4.63409 16.032 5.57628 16.4032 6.58942 16.8022C8.24214 17.4532 10.0837 18.1785 11.2524 18.9997C10.553 18.7004 8.9333 18.1869 7.12457 17.6134C5.65826 17.1485 4.06769 16.6442 2.7424 16.1827C1.8011 15.8531 1.85795 15.1778 2.34314 13.9335C2.57563 13.353 2.87566 12.7689 3.16285 12.2098C3.34599 11.8533 3.52391 11.5069 3.67577 11.1781C3.63152 11.1368 3.49156 10.9423 3.35319 10.75C3.22287 10.5689 3.09396 10.3897 3.04779 10.3424C2.26646 9.48815 2.70538 8.92893 3.4378 8.44873C4.2654 7.91544 5.87434 7.1513 6.38862 6.9291C6.37562 6.87512 6.35184 6.79348 6.32495 6.70115C6.2725 6.52111 6.20821 6.30042 6.18899 6.16496C6.0938 5.43663 6.33177 4.91198 7.70274 4.90334ZM17.878 10.8659C18.0534 11.1467 18.2154 11.406 18.3745 11.6495C18.5285 11.8854 18.6728 12.0996 18.8059 12.297C18.9687 12.5386 19.1146 12.7551 19.2405 12.9556L21.0292 15.6134C21.1918 16.0232 21.172 16.4405 20.9631 16.8404C20.7357 17.2848 20.3549 17.5774 19.8023 17.6934C19.0025 17.8712 18.393 17.6046 17.9647 16.9021C17.8695 17.2305 17.9277 17.6218 18.1365 18.0304C18.3454 18.4489 18.6402 18.7773 19.0025 18.9995H15.9274C16.2896 18.7773 16.5845 18.4477 16.8132 18.0304C17.0326 17.6218 17.0987 17.2305 17.0035 16.9021C16.5752 17.6046 15.9565 17.8712 15.1566 17.6934C14.6053 17.5786 14.2048 17.2848 14.0051 16.8404C13.7764 16.4405 13.7473 16.022 13.9285 15.6134L15.7291 12.9556C15.8762 12.7199 16.0521 12.462 16.2533 12.1672C16.363 12.0064 16.4802 11.8347 16.6043 11.6495C16.8713 11.2409 17.1662 10.7878 17.4993 10.2632C17.6339 10.4752 17.7591 10.6755 17.878 10.8659Z" fill="white"/>
</svg>
