<svg width="16" height="16" viewBox="0 0 16 16" fill="none" xmlns="http://www.w3.org/2000/svg">
<path d="M9.49807 6.52939C9.40151 6.43287 9.29858 6.34585 9.19253 6.26517L9.19234 6.26535C9.08318 6.16036 8.93496 6.0957 8.77155 6.0957C8.43616 6.0957 8.1643 6.36758 8.1643 6.70296C8.1643 6.85135 8.21761 6.98727 8.30604 7.09275C8.30606 7.09277 8.30607 7.0928 8.30611 7.09282C8.34859 7.14349 8.39913 7.18717 8.45588 7.22176C8.51313 7.26897 8.56933 7.31547 8.62189 7.36802L8.67195 7.4181C9.30132 8.04668 9.11343 9.12966 8.48406 9.75904L5.79843 12.4439C5.16908 13.0725 4.1459 13.0725 3.51652 12.4439L3.46606 12.3934C2.83666 11.764 2.83666 10.7401 3.46606 10.1123L4.65255 8.92618C4.80478 8.80535 4.90251 8.61886 4.90251 8.40943C4.90251 8.04517 4.60722 7.74988 4.24296 7.74988C4.1055 7.74988 3.9779 7.79196 3.87225 7.8639C3.87191 7.86319 3.87156 7.86252 3.87121 7.8618L3.85856 7.87363C3.81186 7.90721 3.76963 7.94659 3.73316 7.99098L2.50014 9.14475C1.3411 10.3046 1.3411 12.2015 2.50014 13.3597L2.5502 13.4098C3.70924 14.568 5.60534 14.568 6.76438 13.4098L9.44922 10.7241C10.6067 9.56517 10.7048 7.73689 9.54738 6.57866L9.49807 6.52939Z" fill="white"/>
<path d="M13.3685 2.59024L13.3184 2.54018C12.1594 1.38114 10.2633 1.38114 9.10426 2.54018L6.41943 5.2258C5.26039 6.38484 5.19656 8.05855 6.3556 9.21834L6.40486 9.26685C6.4575 9.31947 6.51214 9.36908 6.56791 9.41667C6.60828 9.46176 6.6557 9.50036 6.70842 9.53088C6.70882 9.5312 6.70923 9.53153 6.70963 9.53185L6.70981 9.53169C6.79383 9.58001 6.89119 9.6078 6.99509 9.6078C7.3117 9.6078 7.56836 9.35111 7.56836 9.03453C7.56836 8.94516 7.5479 8.86058 7.51141 8.78518C7.43562 8.615 7.29375 8.51141 7.19562 8.41327L7.14634 8.36479C6.517 7.73544 6.75599 6.8211 7.38533 6.19175L10.0718 3.5069C10.6996 2.87752 11.7231 2.87752 12.3525 3.5069L12.4026 3.55616C13.0319 4.18556 13.0319 5.20989 12.4026 5.83847L11.2199 7.02187C11.0591 7.14107 10.9547 7.33227 10.9547 7.54785C10.9547 7.90916 11.2476 8.20208 11.609 8.20208C11.7347 8.20208 11.8521 8.16652 11.9519 8.10503C11.9526 8.10631 11.9533 8.10749 11.9541 8.10879L11.9724 8.09185C12.0289 8.05402 12.0791 8.00757 12.1213 7.95447L13.3676 6.80442C14.5275 5.6454 14.5275 3.74926 13.3685 2.59024Z" fill="white"/>
</svg>
