<svg width="24" height="24" viewBox="0 0 24 24" fill="none" xmlns="http://www.w3.org/2000/svg">
<path d="M16.5509 8.09906H5.38086V9.18906H7.58086L8.58086 17.6891H15.4709L16.4709 9.18906H18.6709V8.09906H16.5509ZM10.3009 15.9991L10.0009 10.9291H11.0009L11.1009 15.9991H10.3009ZM13.7009 15.9991H12.9009L13.0009 10.9291H14.0009L13.7009 15.9991ZM13.5409 6.99906C13.5409 6.90582 13.5225 6.8135 13.4868 6.72736C13.4511 6.64122 13.3988 6.56295 13.3329 6.49702C13.267 6.43109 13.1887 6.37879 13.1026 6.34311C13.0164 6.30743 12.9241 6.28906 12.8309 6.28906H10.6809C10.497 6.2943 10.3225 6.37173 10.1952 6.5046C10.068 6.63747 9.99816 6.8151 10.0009 6.99906V7.53906H13.5409V6.99906Z" fill="#566D8F"/>
</svg>
