<svg width="16" height="16" viewBox="0 0 16 16" fill="none" xmlns="http://www.w3.org/2000/svg">
<path d="M7.125 5.15632C7.125 4.7954 7.4204 4.5 7.78132 4.5H8.21896C8.57988 4.5 8.87528 4.7954 8.87528 5.15632V5.59396C8.87528 5.95488 8.57988 6.25028 8.21896 6.25028H7.78132C7.4204 6.25028 7.125 5.95488 7.125 5.59396V5.15632ZM9.75 11.5H6.25V10.625H7.125V8H6.25V7.125H8.875V10.625H9.75V11.5ZM8 1C4.13404 1 1 4.13404 1 8C1 11.866 4.13404 15 8 15C11.866 15 15 11.866 15 8C15 4.13404 11.866 1 8 1ZM8 13.6876C4.85896 13.6876 2.31236 11.1413 2.31236 8C2.31236 4.85868 4.85868 2.31236 8 2.31236C11.1413 2.31236 13.6876 4.85868 13.6876 8C13.6876 11.1413 11.1413 13.6876 8 13.6876Z" fill="black"/>
</svg>
