<svg width="16" height="16" viewBox="0 0 16 16" fill="none" xmlns="http://www.w3.org/2000/svg">
<path fill-rule="evenodd" clip-rule="evenodd" d="M6.42808 6.25529L8.55072 7.7388C8.61571 7.78421 8.70468 7.77209 8.75514 7.71094L13.7579 2.44911C13.7872 2.61361 13.7989 2.36675 13.7896 2.32167C13.7727 2.2394 13.6923 2.18642 13.61 2.20334L9.99507 2.74679C9.97029 2.75189 9.94718 2.76309 9.92782 2.77937C9.86354 2.83344 9.85526 2.92937 9.90933 2.99365L10.5919 3.80519L8.46258 5.87608L6.32146 4.38253C6.25807 4.33831 6.17159 4.34868 6.12044 4.40662L4.00804 6.7997L2.21551 5.97716C2.19469 5.9676 2.17198 5.96287 2.14907 5.96333C2.0651 5.96499 1.99837 6.03441 2.00003 6.11839L2.00013 7.38689C2.00002 7.47983 2.0204 7.48916 2.05339 7.50427C2.06055 7.50755 2.06831 7.5111 2.07658 7.51584L4.13072 8.67839C4.19339 8.7143 4.27267 8.70117 4.32042 8.64698L6.42808 6.25529ZM2.02637 9.08833V12.8692C2.02637 13.0372 2.16254 13.1734 2.33053 13.1734H13.6962C13.8642 13.1734 14.0004 13.0372 14.0004 12.8692V4.85032C14.0004 4.80796 13.9827 4.76751 13.9516 4.73873C13.89 4.68167 13.7938 4.68537 13.7367 4.747L9.25787 9.58459L7.13441 8.13449C7.07386 8.09315 6.99244 8.10088 6.94076 8.15288L4.67731 10.4307L2.25749 8.95841C2.23368 8.94392 2.20633 8.93625 2.17845 8.93625C2.09446 8.93625 2.02637 9.00434 2.02637 9.08833Z" fill="black"/>
</svg>
