<svg width="16" height="16" viewBox="0 0 16 16" fill="none" xmlns="http://www.w3.org/2000/svg">
<path fill-rule="evenodd" clip-rule="evenodd" d="M4.02931 7.38178C4.02931 4.73822 5.80688 3 7.99981 3C10.1927 3 11.9703 4.73867 11.9707 7.38178V9.14178C11.971 9.22435 11.9928 9.30489 12.0334 9.37289L12.8772 10.8009C12.9479 10.9217 12.9897 11.062 12.9983 11.2074C13.007 11.3529 12.9821 11.4985 12.9264 11.6293C12.8126 11.8947 12.5856 12.0613 12.338 12.0613H3.66203C3.41436 12.0613 3.18745 11.8947 3.07361 11.6293C3.01785 11.4985 2.99304 11.3529 3.00168 11.2074C3.01033 11.062 3.05213 10.9217 3.12284 10.8009L3.96663 9.37289C4.00715 9.30489 4.029 9.22435 4.02931 9.14178V7.38178ZM7.66906 2.19689H8.33055C8.60477 2.19644 8.82667 1.92889 8.82667 1.59822C8.82667 1.268 8.60477 1 8.33055 1H7.66906C7.39485 1 7.17294 1.268 7.17294 1.59822C7.17294 1.92889 7.39485 2.19689 7.66906 2.19689ZM11 13C11 13.8284 9.65685 14.5 8 14.5C6.34315 14.5 5 13.8284 5 13H11Z" fill="black"/>
</svg>
