<svg width="16" height="16" viewBox="0 0 16 16" fill="none" xmlns="http://www.w3.org/2000/svg">
<rect opacity="0.01" width="16" height="16" fill="#EBEEF5"/>
<path fill-rule="evenodd" clip-rule="evenodd" d="M8 7C9.65422 7 11 5.65438 11 4C11 2.34564 9.65422 1.00001 8 1C6.34595 1 5 2.34594 5 4C5 5.65391 6.34595 7 8 7ZM13 12.7166V12.4523C13 9.99758 11.2702 8 9.14387 8H6.85581C4.72934 8 3 9.99701 3 12.4523V12.7166C3 14 4.70172 14 6.85581 14H9.14387C11.2132 14 13 14 13 12.7166Z" fill="#566D8F"/>
</svg>
