<svg width="16" height="16" viewBox="0 0 16 16" fill="none" xmlns="http://www.w3.org/2000/svg">
<path d="M14.3653 7.38989L9.15019 2.14189C8.961 1.9527 8.65665 1.9527 8.46746 2.14189C8.27827 2.33108 8.27827 2.64366 8.46746 2.83285L8.9939 3.36752C8.98568 3.37575 8.98568 3.37575 8.97745 3.37575L4.56025 7.82585L3.44155 6.70716C3.25236 6.51797 2.93979 6.51797 2.75882 6.70716C2.56963 6.89635 2.56963 7.20893 2.75882 7.39812L5.4075 10.0632L2.14189 13.3453C1.9527 13.5345 1.9527 13.8471 2.14189 14.0363C2.33108 14.2254 2.63544 14.2254 2.82463 14.0363L6.082 10.7542L9.14197 13.8306C9.33116 14.0198 9.63551 14.0198 9.8247 13.8306C10.0139 13.6414 10.0139 13.3288 9.8247 13.1397L8.706 12.0127L13.1232 7.56263C13.1314 7.5544 13.1314 7.55441 13.1314 7.54618L13.6743 8.08085C13.8635 8.27004 14.1679 8.27004 14.3571 8.08085C14.5463 7.89166 14.5463 7.57908 14.3653 7.38989Z" fill="black"/>
</svg>
