<svg width="16" height="16" viewBox="0 0 16 16" fill="none" xmlns="http://www.w3.org/2000/svg">
<path d="M14 2C14.5523 2 15 2.44772 15 3V13C15 13.5523 14.5523 14 14 14H2C1.44772 14 1 13.5523 1 13V3C1 2.44772 1.44772 2 2 2H14ZM2.5 12.5H4.25V10.75H2.5V12.5ZM10.25 10.75H5.75V12.5H10.25V10.75ZM13.5 10.75H11.75V12.5H13.5V10.75ZM13.5 9.25V6.75H11.75V9.25H13.5ZM2.5 9.25H4.249V6.75H2.5V9.25ZM10.25 6.75H5.749V9.25H10.25V6.75ZM13.5 5.25V3.5H11.75V5.25H13.5ZM4.249 3.5H2.5V5.25H4.249V3.5ZM10.25 3.5H5.75L5.749 5.25H10.25V3.5Z" fill="black"/>
</svg>
