<svg width="16" height="16" viewBox="0 0 16 16" fill="none" xmlns="http://www.w3.org/2000/svg">
<path fill-rule="evenodd" clip-rule="evenodd" d="M4.246 10.188C4.061 9.854 3.909 9.498 3.806 9.132L2 8.936V7.06L3.806 6.868C3.915 6.503 4.067 6.165 4.246 5.814L3.096 4.404L4.399 3.089L5.809 4.245C6.14 4.067 6.492 3.906 6.869 3.8L7.061 2H8.936L9.126 3.8C9.492 3.907 9.829 4.066 10.187 4.246L11.591 3.09L12.904 4.406L11.748 5.815C11.924 6.165 12.087 6.503 12.193 6.868L13.995 7.06V8.936L12.192 9.131C12.086 9.499 11.928 9.857 11.746 10.188L12.904 11.597L11.589 12.898L10.186 11.75C9.835 11.935 9.489 12.091 9.125 12.195L8.937 13.997H7.06L6.868 12.195C6.505 12.091 6.141 11.936 5.809 11.75L4.399 12.898L3.097 11.596L4.246 10.188ZM6.77353 6.76091C6.43653 7.09591 6.26953 7.50491 6.26953 7.99691C6.26953 8.47991 6.43353 8.89691 6.77353 9.24191C7.11153 9.57991 7.51853 9.74591 8.01253 9.74591C8.50253 9.74591 8.91053 9.57891 9.25053 9.24191C9.58853 8.89991 9.75453 8.48791 9.75453 7.99691C9.75453 7.50591 9.58853 7.09591 9.25053 6.76091C8.91153 6.41991 8.50353 6.25391 8.01253 6.25391C7.52053 6.25391 7.11253 6.42091 6.77353 6.76091Z" fill="black"/>
</svg>
