<svg width="16" height="16" viewBox="0 0 16 16" fill="none" xmlns="http://www.w3.org/2000/svg">
<path d="M14.7986 14C13.9524 11.403 11.5012 9.54784 8.60967 9.49475C8.24901 9.4885 7.90865 9.49631 7.58547 9.51817V12.0839C7.58703 12.0917 7.58859 12.0995 7.58859 12.1073C7.58859 12.1698 7.53707 12.2213 7.47462 12.2213C7.43246 12.2213 7.39655 12.1995 7.37782 12.1667V12.1776L1.08119 7.77541H1.11397C1.05152 7.77541 1 7.72388 1 7.66141C1 7.61613 1.02654 7.57709 1.06401 7.55835L7.37626 3.14679V3.15772C7.39655 3.12493 7.43246 3.10307 7.47306 3.10307C7.53551 3.10307 7.58703 3.1546 7.58703 3.21706C7.58703 3.22487 7.58547 3.23268 7.58391 3.24049V5.7297C7.87274 5.71564 8.17563 5.71096 8.49413 5.71721C12.0866 5.77811 15 8.79202 15 12.3869C15.0015 12.9412 14.9297 13.4831 14.7986 14ZM7.58547 3V3.00312H7.57922L7.58547 3ZM7.58547 12.3213L7.58078 12.3181H7.58547V12.3213Z" fill="black"/>
</svg>
