<svg width="16" height="16" viewBox="0 0 16 16" fill="none" xmlns="http://www.w3.org/2000/svg">
<path fill-rule="evenodd" clip-rule="evenodd" d="M12.4688 2.46973L2.46875 12.4697L3.52941 13.5304L4.75708 12.3027C5.74574 12.7506 6.84327 13 7.99935 13C11.3327 13 14.1793 10.9267 15.3327 8C14.7715 6.57593 13.8094 5.35389 12.5853 4.47445L13.5294 3.53039L12.4688 2.46973ZM11.6331 5.4267L10.5828 6.47697C10.8474 6.92375 10.9993 7.44457 10.9993 8C10.9993 9.65333 9.65268 11 7.99935 11C7.44392 11 6.9231 10.848 6.47632 10.5835L5.77604 11.2838C6.47373 11.5333 7.22308 11.6667 7.99935 11.6667C10.5327 11.6667 12.7793 10.2467 13.8793 8C13.3582 6.93568 12.5783 6.05689 11.6331 5.4267ZM7.4768 9.583C7.64118 9.63729 7.81685 9.66667 7.99935 9.66667C8.91935 9.66667 9.66602 8.92 9.66602 8C9.66602 7.8175 9.63663 7.64183 9.58235 7.47745L7.4768 9.583ZM2.11935 8C2.56991 8.92025 3.21286 9.7018 3.98909 10.3039L3.0471 11.2459C1.99721 10.3947 1.16996 9.27881 0.666016 8C1.81935 5.07333 4.66602 3 7.99935 3C8.9804 3 9.9193 3.1796 10.7853 3.50769L9.73034 4.56262C9.17626 4.41236 8.59541 4.33333 7.99935 4.33333C5.47268 4.33333 3.21935 5.75333 2.11935 8ZM5.20408 9.08889L6.33316 7.95981C6.35421 7.07171 7.07106 6.35486 7.95916 6.33381L9.08824 5.20473C8.75048 5.07258 8.38318 5 7.99935 5C6.34602 5 4.99935 6.34667 4.99935 8C4.99935 8.38383 5.07193 8.75113 5.20408 9.08889Z" fill="black"/>
</svg>
